<svg data-v-423bf9ae="" xmlns="http://www.w3.org/2000/svg" viewBox="0 0 450 97" class="iconLeftSlogan"><!----><!----><!----><g data-v-423bf9ae="" id="92aa0696-7fae-401e-9de7-d79a89739a05" fill="white" transform="matrix(3.868471896491106,0,0,3.868471896491106,112.64935370913298,-11.566731722656769)"><path d="M0.79 11.90L0.79 11.90L0.79 11.90Q0.79 11.10 1.70 11.10L1.70 11.10L1.70 11.10Q2.17 11.10 2.62 11.34L2.62 11.34L2.62 11.34Q2.62 12.21 2.98 12.67L2.98 12.67L2.98 12.67Q3.34 13.13 4.22 13.13L4.22 13.13L4.22 13.13Q5.10 13.13 5.51 12.80L5.51 12.80L5.51 12.80Q5.92 12.46 5.92 11.73L5.92 11.73L5.92 11.73Q5.92 10.95 5.32 10.40L5.32 10.40L5.32 10.40Q4.83 9.94 4.18 9.60L4.18 9.60L4.18 9.60Q3.53 9.27 3.13 9.05L3.13 9.05L3.13 9.05Q2.73 8.84 2.38 8.58L2.38 8.58L2.38 8.58Q2.02 8.32 1.74 8.02L1.74 8.02L1.74 8.02Q1.13 7.37 1.13 6.46L1.13 6.46L1.13 6.46Q1.13 5.56 1.61 4.94L1.61 4.94L1.61 4.94Q2.53 3.72 4.61 3.72L4.61 3.72L4.61 3.72Q6.21 3.72 7.05 4.38L7.05 4.38L7.05 4.38Q7.81 4.99 7.81 5.74L7.81 5.74L7.81 5.74Q7.81 6.08 7.58 6.31L7.58 6.31L7.58 6.31Q7.34 6.54 6.85 6.54L6.85 6.54L6.85 6.54Q6.36 6.54 5.84 6.28L5.84 6.28L5.84 6.28Q5.84 6.23 5.84 6.19L5.84 6.19L5.84 6.19Q5.84 5.43 5.50 4.98L5.50 4.98L5.50 4.98Q5.16 4.52 4.48 4.52L4.48 4.52L4.48 4.52Q3.79 4.52 3.39 4.90L3.39 4.90L3.39 4.90Q2.99 5.28 2.99 6.03L2.99 6.03L2.99 6.03Q2.99 6.67 3.62 7.16L3.62 7.16L3.62 7.16Q4.06 7.50 4.77 7.85L4.77 7.85L4.77 7.85Q5.48 8.21 5.90 8.43L5.90 8.43L5.90 8.43Q6.31 8.65 6.69 8.93L6.69 8.93L6.69 8.93Q7.06 9.21 7.35 9.54L7.35 9.54L7.35 9.54Q7.98 10.25 7.98 11.17L7.98 11.17L7.98 11.17Q7.98 12.10 7.48 12.74L7.48 12.74L7.48 12.74Q6.98 13.38 6.15 13.71L6.15 13.71L6.15 13.71Q5.31 14.04 4.47 14.04L4.47 14.04L4.47 14.04Q3.62 14.04 3.04 13.91L3.04 13.91L3.04 13.91Q2.46 13.77 2.06 13.55L2.06 13.55L2.06 13.55Q1.65 13.33 1.36 13.05L1.36 13.05L1.36 13.05Q0.79 12.50 0.79 11.90ZM11.38 10.85L11.38 10.85Q11.59 11.86 12.26 12.48L12.26 12.48L12.26 12.48Q12.93 13.10 13.82 13.10L13.82 13.10L13.82 13.10Q14.72 13.10 15.63 12.33L15.63 12.33L15.63 12.33Q15.97 12.56 16.04 12.87L16.04 12.87L16.04 12.87Q15.42 13.60 14.18 13.91L14.18 13.91L14.18 13.91Q13.69 14.04 13.03 14.04L13.03 14.04L13.03 14.04Q12.38 14.04 11.68 13.81L11.68 13.81L11.68 13.81Q10.99 13.57 10.44 13.12L10.44 13.12L10.44 13.12Q9.88 12.67 9.56 11.93L9.56 11.93L9.56 11.93Q9.24 11.20 9.24 10.30L9.24 10.30L9.24 10.30Q9.24 9.41 9.57 8.68L9.57 8.68L9.57 8.68Q9.90 7.95 10.44 7.49L10.44 7.49L10.44 7.49Q11.57 6.51 13.02 6.51L13.02 6.51L13.02 6.51Q14.30 6.51 15.24 7.20L15.24 7.20L15.24 7.20Q15.69 7.54 15.96 8.08L15.96 8.08L15.96 8.08Q16.23 8.63 16.23 9.31L16.23 9.31L16.23 9.31Q16.23 10.48 15.46 10.54L15.46 10.54L11.38 10.85ZM14.39 9.11L14.39 9.11Q14.39 8.29 13.94 7.83L13.94 7.83L13.94 7.83Q13.49 7.38 12.76 7.38L12.76 7.38L12.76 7.38Q12.02 7.38 11.65 8.06L11.65 8.06L11.65 8.06Q11.27 8.75 11.27 9.97L11.27 9.97L11.27 9.97Q12.97 9.78 14.35 9.58L14.35 9.58L14.35 9.58Q14.39 9.33 14.39 9.11L14.39 9.11ZM22.15 9.30L22.15 9.21L22.15 9.21Q22.15 8.05 21.62 8.05L21.62 8.05L21.62 8.05Q21.23 8.05 20.87 8.27L20.87 8.27L20.87 8.27Q20.51 8.49 20.10 8.89L20.10 8.89L20.10 8.89Q20.10 9.57 20.06 13.82L20.06 13.82L20.06 13.82Q19.30 13.95 18.82 13.95L18.82 13.95L18.82 13.95Q18.34 13.95 17.99 13.82L17.99 13.82L17.99 13.82Q18.07 12.68 18.07 9.93L18.07 9.93L18.07 8.33L18.07 8.33Q18.07 7.81 17.71 7.71L17.71 7.71L17.71 7.71Q17.47 7.64 17.05 7.60L17.05 7.60L17.05 7.60Q17.00 7.40 17.00 7.29L17.00 7.29L17.00 7.29Q17.00 7.18 17.01 7.12L17.01 7.12L17.01 7.12Q17.99 6.57 19.44 6.57L19.44 6.57L19.44 6.57Q19.68 6.57 19.80 6.58L19.80 6.58L19.80 6.58Q20.00 6.92 20.03 7.29L20.03 7.29L20.03 7.29Q20.07 7.66 20.09 7.99L20.09 7.99L20.09 7.99Q21.01 6.88 21.64 6.64L21.64 6.64L21.64 6.64Q21.94 6.52 22.27 6.52L22.27 6.52L22.27 6.52Q22.96 6.52 23.37 6.90L23.37 6.90L23.37 6.90Q23.78 7.28 23.78 8.01L23.78 8.01L23.78 8.01Q23.78 8.57 23.37 8.95L23.37 8.95L23.37 8.95Q22.97 9.32 22.39 9.32L22.39 9.32L22.39 9.32Q22.27 9.32 22.15 9.30L22.15 9.30ZM30.63 6.37L30.63 6.37L30.63 6.37Q31.92 6.37 31.92 7.60L31.92 7.60L31.92 7.60Q31.92 8.55 30.92 10.21L30.92 10.21L30.92 10.21Q29.63 12.33 28.95 13.96L28.95 13.96L28.95 13.96Q28.70 14.05 28.40 14.05L28.40 14.05L28.40 14.05Q28.10 14.05 27.82 13.94L27.82 13.94L27.82 13.94Q27.53 13.82 27.42 13.68L27.42 13.68L27.42 13.68Q27.32 13.54 26.96 12.64L26.96 12.64L26.96 12.64Q26.60 11.74 26.21 10.77L26.21 10.77L26.21 10.77Q25.81 9.79 25.33 8.88L25.33 8.88L25.33 8.88Q24.84 7.97 24.51 7.77L24.51 7.77L24.51 7.77Q24.40 7.70 23.86 7.66L23.86 7.66L23.86 7.66Q23.85 7.60 23.84 7.54L23.84 7.54L23.84 7.54Q23.82 7.47 23.82 7.44L23.82 7.44L23.82 7.44Q23.80 7.29 23.82 7.18L23.82 7.18L23.82 7.18Q24.81 6.62 26.04 6.62L26.04 6.62L26.04 6.62Q26.26 6.62 26.37 6.63L26.37 6.63L26.37 6.63Q26.65 6.92 27.21 8.29L27.21 8.29L27.21 8.29Q27.77 9.65 28.60 12.30L28.60 12.30L28.60 12.30Q30.07 8.03 30.14 7.35L30.14 7.35L30.14 7.35Q30.16 7.18 30.16 6.96L30.16 6.96L30.16 6.96Q30.16 6.75 30.03 6.55L30.03 6.55L30.03 6.55Q30.03 6.49 30.23 6.43L30.23 6.43L30.23 6.43Q30.43 6.37 30.63 6.37ZM33.74 3.33L33.74 3.33L33.74 3.33Q34.15 2.99 34.62 2.99L34.62 2.99L34.62 2.99Q35.09 2.99 35.40 3.28L35.40 3.28L35.40 3.28Q35.70 3.57 35.70 4.09L35.70 4.09L35.70 4.09Q35.70 4.62 35.31 4.98L35.31 4.98L35.31 4.98Q34.91 5.34 34.40 5.34L34.40 5.34L34.40 5.34Q33.89 5.34 33.60 5.02L33.60 5.02L33.60 5.02Q33.31 4.71 33.31 4.22L33.31 4.22L33.31 4.22Q33.31 3.73 33.74 3.33ZM33.56 8.33L33.56 8.33L33.56 8.33Q33.56 7.81 33.20 7.71L33.20 7.71L33.20 7.71Q32.96 7.64 32.54 7.60L32.54 7.60L32.54 7.60Q32.49 7.40 32.49 7.29L32.49 7.29L32.49 7.29Q32.49 7.18 32.50 7.12L32.50 7.12L32.50 7.12Q33.48 6.57 34.97 6.57L34.97 6.57L34.97 6.57Q35.21 6.57 35.32 6.58L35.32 6.58L35.32 6.58Q35.51 6.88 35.59 7.75L35.59 7.75L35.59 7.75Q35.64 8.15 35.64 8.95L35.64 8.95L35.64 8.95Q35.64 9.75 35.59 13.82L35.59 13.82L35.59 13.82Q34.83 13.95 34.33 13.95L34.33 13.95L34.33 13.95Q33.82 13.95 33.48 13.82L33.48 13.82L33.48 13.82Q33.60 12.17 33.60 10.87L33.60 10.87L33.60 10.87Q33.60 9.56 33.56 8.33ZM39.90 6.83L39.90 7.40L41.45 7.46L41.45 7.46Q41.64 7.46 41.73 7.46L41.73 7.46L41.73 7.46Q41.76 7.46 41.76 7.88L41.76 7.88L41.76 7.88Q41.76 8.30 41.73 8.30L41.73 8.30L41.73 8.30Q40.93 8.39 39.90 8.39L39.90 8.39L39.90 8.39Q39.90 12.77 40.04 13.79L40.04 13.79L40.04 13.79Q39.69 13.93 39.06 13.93L39.06 13.93L39.06 13.93Q38.43 13.93 37.98 13.80L37.98 13.80L37.98 13.80Q37.91 10.55 37.91 8.31L37.91 8.31L37.91 8.31Q37.31 8.24 36.85 8.24L36.85 8.24L36.85 8.24Q36.81 8.19 36.81 7.84L36.81 7.84L36.81 7.84Q36.81 7.49 36.85 7.46L36.85 7.46L36.85 7.46Q37.31 7.40 37.91 7.38L37.91 7.38L37.91 7.38Q37.94 6.06 37.95 5.73L37.95 5.73L37.95 5.73Q37.97 5.40 38.13 4.89L38.13 4.89L38.13 4.89Q38.29 4.38 38.54 4.05L38.54 4.05L38.54 4.05Q38.79 3.72 39.12 3.49L39.12 3.49L39.12 3.49Q39.72 3.09 40.44 3.09L40.44 3.09L40.44 3.09Q41.15 3.09 41.62 3.23L41.62 3.23L41.62 3.23Q42.10 3.38 42.39 3.73L42.39 3.73L42.39 3.73Q42.68 4.08 42.68 4.60L42.68 4.60L42.68 4.60Q42.68 5.13 42.43 5.47L42.43 5.47L42.43 5.47Q42.18 5.81 41.62 5.81L41.62 5.81L41.62 5.81Q41.37 5.81 41.16 5.71L41.16 5.71L41.16 5.71Q40.95 5.62 40.87 5.53L40.87 5.53L40.87 5.53Q40.78 5.45 40.78 5.43L40.78 5.43L40.78 5.43Q40.83 5.21 40.83 4.88L40.83 4.88L40.83 4.88Q40.83 4.55 40.67 4.29L40.67 4.29L40.67 4.29Q40.50 4.03 40.20 4.03L40.20 4.03L40.20 4.03Q39.90 4.03 39.73 4.24L39.73 4.24L39.73 4.24Q39.55 4.46 39.55 4.81L39.55 4.81L39.55 4.81Q39.55 5.15 39.73 5.87L39.73 5.87L39.73 5.87Q39.90 6.58 39.90 6.83L39.90 6.83ZM43.74 15.74L43.74 15.74L43.74 15.74Q43.81 16.02 44.00 16.24L44.00 16.24L44.00 16.24Q44.19 16.46 44.46 16.46L44.46 16.46L44.46 16.46Q44.91 16.46 45.29 15.88L45.29 15.88L45.29 15.88Q45.67 15.29 45.94 14.23L45.94 14.23L45.94 14.23Q45.81 13.84 45.18 12.48L45.18 12.48L45.18 12.48Q44.56 11.11 43.71 9.56L43.71 9.56L43.71 9.56Q42.76 7.84 42.31 7.69L42.31 7.69L42.31 7.69Q42.21 7.66 42.09 7.65L42.09 7.65L42.09 7.65Q41.97 7.64 41.88 7.64L41.88 7.64L41.88 7.64Q41.79 7.63 41.76 7.63L41.76 7.63L41.76 7.63Q41.71 7.29 41.71 7.25L41.71 7.25L41.71 7.25Q41.71 7.21 41.72 7.15L41.72 7.15L41.72 7.15Q42.82 6.54 43.77 6.54L43.77 6.54L43.77 6.54Q44.17 6.54 44.55 6.69L44.55 6.69L44.55 6.69Q44.93 6.85 45.53 8.29L45.53 8.29L45.53 8.29Q46.14 9.73 46.90 12.53L46.90 12.53L46.90 12.53Q47.80 9.51 48.30 7.63L48.30 7.63L48.30 7.63Q48.44 7.08 48.81 6.80L48.81 6.80L48.81 6.80Q49.17 6.52 49.52 6.52L49.52 6.52L49.52 6.52Q50.53 6.52 50.80 7.31L50.80 7.31L50.80 7.31Q50.72 7.31 50.48 7.56L50.48 7.56L50.48 7.56Q50.24 7.82 49.95 8.26L49.95 8.26L49.95 8.26Q49.66 8.70 49.32 9.45L49.32 9.45L49.32 9.45Q48.97 10.21 48.68 11.00L48.68 11.00L48.68 11.00Q48.39 11.79 48.05 12.69L48.05 12.69L48.05 12.69Q47.71 13.59 47.39 14.41L47.39 14.41L47.39 14.41Q47.07 15.22 46.68 15.98L46.68 15.98L46.68 15.98Q46.29 16.74 45.90 17.29L45.90 17.29L45.90 17.29Q45.51 17.84 45.03 18.17L45.03 18.17L45.03 18.17Q44.54 18.50 44.09 18.50L44.09 18.50L44.09 18.50Q43.63 18.50 43.34 18.38L43.34 18.38L43.34 18.38Q43.04 18.25 42.88 18.04L42.88 18.04L42.88 18.04Q42.56 17.61 42.56 17.11L42.56 17.11L42.56 17.11Q42.56 16.60 42.90 16.23L42.90 16.23L42.90 16.23Q43.24 15.85 43.74 15.74ZM60.77 6.57L60.77 6.57L60.77 6.57Q60.77 5.56 60.43 5.14L60.43 5.14L60.43 5.14Q60.09 4.73 59.29 4.73L59.29 4.73L59.29 4.73Q58.49 4.73 57.93 5.35L57.93 5.35L57.93 6.80L57.93 6.80Q57.84 6.93 57.60 7.04L57.60 7.04L57.60 7.04Q57.36 7.15 57.00 7.15L57.00 7.15L57.00 7.15Q56.64 7.15 56.44 6.95L56.44 6.95L56.44 6.95Q56.25 6.74 56.17 6.27L56.17 6.27L56.17 6.27Q56.09 5.80 56.09 5.42L56.09 5.42L56.09 5.42Q56.09 5.04 56.23 4.89L56.23 4.89L56.23 4.89Q56.36 4.73 56.62 4.55L56.62 4.55L56.62 4.55Q56.88 4.36 57.26 4.16L57.26 4.16L57.26 4.16Q58.13 3.71 59.21 3.71L59.21 3.71L59.21 3.71Q60.29 3.71 61.04 3.99L61.04 3.99L61.04 3.99Q61.80 4.27 62.26 4.88L62.26 4.88L62.26 4.88Q62.71 5.50 62.71 6.40L62.71 6.40L62.71 6.40Q62.71 7.48 62.12 8.35L62.12 8.35L62.12 8.35Q61.51 9.23 60.74 9.82L60.74 9.82L60.74 9.82Q60.05 10.38 59.32 10.84L59.32 10.84L59.32 10.84Q57.85 11.78 57.85 12.51L57.85 12.51L57.85 12.51Q57.85 12.64 57.89 12.72L57.89 12.72L57.89 12.72Q58.39 12.68 59.54 12.62L59.54 12.62L59.54 12.62Q60.70 12.56 61.20 12.52L61.20 12.52L61.30 11.66L61.30 11.66Q61.39 11.53 61.63 11.42L61.63 11.42L61.63 11.42Q61.87 11.31 62.23 11.31L62.23 11.31L62.23 11.31Q62.59 11.31 62.78 11.51L62.78 11.51L62.78 11.51Q63.14 11.88 63.14 13.12L63.14 13.12L63.14 13.12Q63.14 13.65 63.01 13.79L63.01 13.79L63.01 13.79Q62.42 13.80 57.63 13.80L57.63 13.80L56.66 13.80L56.66 13.80Q56.46 13.80 56.36 13.43L56.36 13.43L56.36 13.43Q56.26 13.05 56.26 12.69L56.26 12.69L56.26 12.69Q56.43 11.59 57.35 10.68L57.35 10.68L57.35 10.68Q57.76 10.28 58.23 9.91L58.23 9.91L58.23 9.91Q58.69 9.53 59.14 9.17L59.14 9.17L59.14 9.17Q59.59 8.80 59.95 8.43L59.95 8.43L59.95 8.43Q60.77 7.58 60.77 6.57ZM70.43 4.45L70.43 4.45L70.38 6.40L70.38 10.61L70.38 10.61Q71.22 10.56 71.52 10.37L71.52 10.37L71.52 10.37Q71.78 10.51 71.78 10.94L71.78 10.94L71.78 10.94Q71.78 11.37 71.40 11.69L71.40 11.69L71.40 11.69Q71.02 12.01 70.39 12.09L70.39 12.09L70.39 12.09Q70.44 13.11 70.55 13.76L70.55 13.76L70.55 13.76Q69.96 13.95 69.36 13.95L69.36 13.95L69.36 13.95Q68.77 13.95 68.46 13.76L68.46 13.76L68.46 13.76Q68.53 12.74 68.56 12.01L68.56 12.01L68.56 12.01Q66.73 11.85 65.89 11.85L65.89 11.85L65.89 11.85Q65.05 11.85 64.43 12.00L64.43 12.00L64.43 12.00Q64.31 11.83 64.21 11.46L64.21 11.46L64.21 11.46Q64.12 11.09 64.12 10.86L64.12 10.86L64.12 10.86Q64.12 10.62 64.15 10.53L64.15 10.53L64.15 10.53Q66.31 7.44 68.41 3.89L68.41 3.89L68.41 3.89Q68.95 3.71 69.43 3.71L69.43 3.71L69.43 3.71Q69.91 3.71 70.32 3.78L70.32 3.78L70.32 3.78Q70.43 3.94 70.43 4.45ZM65.54 10.51L65.54 10.51L65.54 10.51Q65.87 10.45 66.44 10.45L66.44 10.45L66.44 10.45Q67.01 10.45 68.57 10.55L68.57 10.55L68.57 10.55Q68.58 9.24 68.58 5.76L68.58 5.76L68.58 5.76Q67.98 6.67 66.98 8.26L66.98 8.26L66.98 8.26Q65.98 9.86 65.54 10.51ZM72.55 7.44L72.55 7.44L72.55 7.44Q72.50 7.12 72.50 7.09L72.50 7.09L72.50 7.09Q72.50 7.03 72.51 6.97L72.51 6.97L72.51 6.97Q73.38 6.64 74.28 6.64L74.28 6.64L74.28 6.64Q74.59 6.64 75.11 6.71L75.11 6.71L75.11 6.71Q75.27 6.77 75.41 6.92L75.41 6.92L75.41 6.92Q75.54 7.06 75.74 7.39L75.74 7.39L75.74 7.39Q75.93 7.71 76.71 9.11L76.71 9.11L76.71 9.11Q77.53 7.58 77.88 6.73L77.88 6.73L77.88 6.73Q78.41 6.60 78.89 6.60L78.89 6.60L78.89 6.60Q79.38 6.60 79.79 6.72L79.79 6.72L79.79 6.72Q78.78 8.35 77.27 10.08L77.27 10.08L77.27 10.08Q78.47 12.13 79.83 13.04L79.83 13.04L79.83 13.04Q79.83 13.46 79.51 13.74L79.51 13.74L79.51 13.74Q79.19 14.02 78.74 14.02L78.74 14.02L78.74 14.02Q78.68 14.02 78.49 14.01L78.49 14.01L78.49 14.01Q78.29 14 77.97 13.82L77.97 13.82L77.97 13.82Q77.64 13.64 77.38 13.38L77.38 13.38L77.38 13.38Q77.11 13.13 76.80 12.69L76.80 12.69L76.80 12.69Q76.34 12.04 75.76 11.03L75.76 11.03L75.76 11.03Q75.61 11.29 75.14 12.25L75.14 12.25L75.14 12.25Q74.68 13.21 74.37 13.80L74.37 13.80L74.37 13.80Q73.84 13.94 73.36 13.94L73.36 13.94L73.36 13.94Q72.88 13.94 72.47 13.82L72.47 13.82L72.47 13.82Q72.86 13.09 73.82 11.85L73.82 11.85L73.82 11.85Q74.77 10.60 75.22 10.09L75.22 10.09L75.22 10.09Q74.22 8.34 73.54 7.75L73.54 7.75L73.54 7.75Q73.16 7.44 72.55 7.44ZM80.47 3.86L80.47 3.86L80.47 3.86Q83.04 4.01 86.82 4.01L86.82 4.01L86.82 4.01Q87.01 4.46 87.01 4.86L87.01 4.86L87.01 4.86Q87.01 5.26 86.83 5.61L86.83 5.61L86.83 5.61Q86.65 5.97 86.00 7.06L86.00 7.06L86.00 7.06Q85.35 8.16 85.16 8.57L85.16 8.57L85.16 8.57Q84.97 8.99 84.85 9.32L84.85 9.32L84.85 9.32Q84.73 9.65 84.66 10.15L84.66 10.15L84.66 10.15Q84.47 11.56 84.47 12.29L84.47 12.29L84.47 12.29Q84.47 13.03 84.56 13.76L84.56 13.76L84.56 13.76Q84.07 13.91 83.39 13.91L83.39 13.91L83.39 13.91Q82.71 13.91 82.30 13.76L82.30 13.76L82.30 13.76Q82.30 10.89 82.94 9.43L82.94 9.43L82.94 9.43Q83.39 8.42 84.44 6.92L84.44 6.92L84.44 6.92Q85.16 5.90 85.67 5.00L85.67 5.00L82.17 5.19L82.17 6.02L82.17 6.02Q82.07 6.24 81.77 6.31L81.77 6.31L81.77 6.31Q81.48 6.38 81.28 6.38L81.28 6.38L81.28 6.38Q80.77 6.38 80.56 6.03L80.56 6.03L80.56 6.03Q80.36 5.67 80.36 4.82L80.36 4.82L80.36 4.82Q80.36 3.97 80.47 3.86Z"></path></g><!----><g data-v-423bf9ae="" id="b27318a6-96da-430b-846e-070556333a59" transform="matrix(1.038078138563368,0,0,1.038078138563368,-4.001354145953194,-2.617439967889524)" stroke="none" fill="white"><path d="M58.248 32.491c-.431.392-7.462 6.679-16.153 14.449a74.836 74.836 0 0 0 4.927 5.42c2.447 2.438 4.725 4.412 6.784 6.01a29026.23 29026.23 0 0 1 15.629-17.474c.94-1.034 1.693-.719 2.101-.603 6.896 1.952 14.677.232 18.228-7.172 3.279-6.841.598-12.116-1.588-15.76-.524-.885-1.366-.354-1.586.11-.232.47-4.169 8.688-4.169 8.688-1.052 2.201-3.628 3.849-8.782 1.382-5.153-2.472-5.469-5.513-4.413-7.708 0 0 3.677-7.665 4.169-8.687.488-1.029-.258-1.289-.706-1.228-4.22.552-10.035 1.775-13.319 8.626-1.886 3.927-1.772 7.775-.382 11.154.205.509.442 1.742-.74 2.793zM26.802 72.582a126.215 126.215 0 0 1-6.071-6.536L7.503 77.875c-.292.264-.58.553-.851.845-3.976 4.452-3.592 11.275.851 15.247 4.444 3.975 11.265 3.589 15.238-.853l11.917-13.333a128.306 128.306 0 0 1-7.856-7.199zM12.339 8.552C4.34 16.687 3.904 26.983 3.904 26.983c1.999 9.987 13.155 28.185 26.734 41.756 13.573 13.582 31.767 24.74 41.761 26.73 0 0 10.298-.426 18.426-8.433l.007.011 4.792-4.788a1.64 1.64 0 0 0 0-2.307l-20.32-20.321a1.642 1.642 0 0 0-2.307 0l-4.79 4.793.012.018-4.503 5.579s-8.538-1.841-20.527-13.83C31.196 44.203 29.354 35.665 29.354 35.665l5.583-4.512.014.022.161-.161.002-.006 4.631-4.623a1.645 1.645 0 0 0 0-2.312L19.426 3.763a1.627 1.627 0 0 0-2.3 0l-4.792 4.789h.005z"></path></g><!----><g data-v-423bf9ae="" id="1e6ecbe0-808e-45c2-ad8b-83515a83e25a" fill="white" transform="matrix(0.604484874254254,0,0,0.604484874254254,115.39110648864505,58.24699344384892)"><path d="M0.52 3.51C0.52 3.75 0.60 3.79 0.77 3.79L1.62 3.77C1.68 3.77 1.74 5.52 1.74 7.11L1.74 11.63C1.74 11.93 1.72 12.18 1.69 12.18L0.97 12.18C0.74 12.18 0.67 12.19 0.67 12.39C0.67 12.63 0.70 12.68 0.90 12.68C1.02 12.68 1.97 12.64 2.39 12.64C2.58 12.64 3.09 12.67 3.74 12.67C5.29 12.67 7.70 12.43 7.70 10.23C7.70 8.27 5.88 7.94 5.19 7.84C5.11 7.83 5.10 7.83 5.10 7.81C5.10 7.80 5.14 7.78 5.21 7.76C5.85 7.52 7.29 6.90 7.29 5.54C7.29 3.81 5.82 3.25 4.14 3.25C3.57 3.25 2.97 3.29 2.42 3.29C2.00 3.29 0.99 3.26 0.77 3.26C0.59 3.26 0.52 3.28 0.52 3.51ZM2.97 8.19C2.97 8.12 2.97 8.08 3.08 8.08L3.56 8.08C4.17 8.08 4.82 8.09 5.19 8.22C6.06 8.51 6.38 9.16 6.38 10.14C6.38 11.17 5.92 12.18 3.91 12.18L3.07 12.18C2.98 12.18 2.97 9.02 2.97 8.19ZM2.97 7.59L2.97 6.92C2.97 5.87 2.98 3.71 3.02 3.68C3.08 3.65 3.39 3.63 3.60 3.63C5.01 3.63 6.03 4.41 6.03 5.77C6.03 6.92 5.31 7.46 4.68 7.66C4.59 7.69 4.49 7.70 4.41 7.70C4.33 7.70 4.19 7.69 3.95 7.69L3.15 7.69C2.97 7.69 2.97 7.67 2.97 7.59ZM15.81 12.39C15.81 12.63 15.83 12.68 16.03 12.68C16.35 12.68 17.32 12.64 17.74 12.64C18.16 12.64 22.67 12.68 22.99 12.68C23.11 12.68 23.27 12.66 23.27 12.49C23.27 12.07 23.31 11.23 23.31 10.53C23.31 10.39 23.16 10.39 23.03 10.39C22.92 10.39 22.79 10.39 22.79 10.51C22.78 11.06 22.78 11.41 22.75 11.76C22.72 12.01 22.72 12.04 22.62 12.04C22.47 12.04 19.84 12.08 18.34 12.08C18.27 12.08 18.23 10.11 18.19 8.26C18.19 8.06 18.23 8.09 18.37 8.09L20.65 8.09C21.35 8.09 21.38 8.20 21.38 8.30L21.38 9.00C21.38 9.14 21.56 9.14 21.67 9.14C21.77 9.14 21.90 9.13 21.90 9.02C21.90 8.83 21.87 8.33 21.87 7.83C21.87 7.32 21.90 6.83 21.90 6.71C21.90 6.59 21.76 6.58 21.66 6.58C21.55 6.58 21.38 6.59 21.38 6.72L21.38 7.45C21.38 7.62 20.93 7.63 20.65 7.63L18.31 7.63C18.20 7.63 18.19 7.63 18.19 7.45C18.17 6.75 18.16 6.06 18.16 5.46C18.16 5.12 18.16 3.71 18.24 3.71C19.47 3.71 21.98 3.75 21.98 3.81C21.98 3.99 21.94 4.83 21.94 4.89C21.94 5.04 22.01 5.10 22.19 5.10C22.39 5.10 22.46 5.08 22.46 4.94C22.46 3.85 22.51 3.36 22.51 3.09C22.51 2.91 22.43 2.90 22.23 2.90C22.04 2.90 22.04 2.95 22.01 3.11C21.99 3.25 22.06 3.25 21.15 3.25C20.54 3.25 18.40 3.29 17.63 3.29C17.14 3.29 16.20 3.25 16.10 3.25C15.97 3.25 15.92 3.30 15.92 3.49C15.92 3.72 15.99 3.74 16.16 3.74L16.81 3.74C16.87 3.74 16.94 4.79 16.94 5.71C16.94 5.80 17.00 8.27 17.00 9.83L17.00 11.17C17.00 11.84 16.97 12.18 16.94 12.18L16.09 12.18C15.86 12.18 15.81 12.21 15.81 12.39ZM31.49 5.77C31.49 9.07 36.47 8.20 36.47 10.65C36.47 11.59 35.63 12.31 34.65 12.31C33.82 12.31 32.23 11.83 32.20 11.47L32.12 10.15C32.10 9.97 32.03 9.91 31.85 9.91L31.78 9.91C31.57 9.91 31.57 10.00 31.57 10.12C31.57 10.32 31.68 11.66 31.71 12.17C31.72 12.38 32.98 12.85 34.52 12.85C36.09 12.85 37.70 11.87 37.70 10.11C37.70 6.79 32.73 7.87 32.73 5.32C32.73 4.31 33.52 3.56 34.55 3.56C35.57 3.56 36.67 4.58 36.67 4.89C36.67 5.01 36.62 5.73 36.62 5.78C36.62 5.92 36.67 5.99 36.93 5.99C37.17 5.99 37.18 5.94 37.18 5.75C37.18 5.04 37.27 3.68 37.27 3.53C37.27 3.30 37.23 3.29 36.96 3.29C36.74 3.29 36.72 3.32 36.71 3.53C36.71 3.61 36.69 3.78 36.65 3.78C36.60 3.78 36.51 3.74 36.44 3.68C35.64 3.14 35.03 3.08 34.52 3.08C33.00 3.08 31.49 4.17 31.49 5.77ZM45.26 5.01C45.26 5.17 45.44 5.17 45.57 5.17C45.72 5.17 45.77 5.15 45.78 4.97L45.89 3.89C45.91 3.81 46.45 3.75 47.21 3.75L49.20 3.75C49.25 3.75 49.28 4.35 49.28 4.97C49.28 6.43 49.22 12.18 49.10 12.18L48.23 12.18C48.01 12.18 47.96 12.19 47.96 12.39C47.96 12.63 47.98 12.68 48.17 12.68C48.50 12.68 49.48 12.64 49.90 12.64C50.32 12.64 51.25 12.68 51.58 12.68C51.74 12.68 51.77 12.61 51.77 12.40C51.77 12.24 51.74 12.18 51.58 12.18L50.58 12.18C50.55 12.18 50.55 11.76 50.55 11.31C50.55 9.56 50.64 5.96 50.64 5.92C50.65 5.18 50.65 3.75 50.75 3.75L52.36 3.75C53.07 3.75 53.90 3.78 53.90 3.85C53.90 3.99 53.86 4.90 53.86 4.97C53.86 5.12 53.93 5.17 54.11 5.17C54.31 5.17 54.38 5.17 54.38 5.03C54.38 3.93 54.43 3.40 54.43 3.14C54.43 2.94 54.35 2.94 54.15 2.94C54.00 2.94 53.94 2.98 53.93 3.16C53.93 3.23 53.28 3.28 52.44 3.28L47.45 3.28C46.79 3.28 45.98 3.28 45.98 3.21L45.98 3.07C45.98 2.94 45.85 2.94 45.75 2.94C45.53 2.94 45.50 3.00 45.49 3.19C45.43 3.89 45.26 4.97 45.26 5.01ZM72.20 5.77C72.20 9.07 77.18 8.20 77.18 10.65C77.18 11.59 76.34 12.31 75.36 12.31C74.54 12.31 72.94 11.83 72.91 11.47L72.83 10.15C72.81 9.97 72.74 9.91 72.56 9.91L72.49 9.91C72.28 9.91 72.28 10.00 72.28 10.12C72.28 10.32 72.39 11.66 72.42 12.17C72.44 12.38 73.70 12.85 75.24 12.85C76.80 12.85 78.41 11.87 78.41 10.11C78.41 6.79 73.44 7.87 73.44 5.32C73.44 4.31 74.23 3.56 75.26 3.56C76.29 3.56 77.38 4.58 77.38 4.89C77.38 5.01 77.34 5.73 77.34 5.78C77.34 5.92 77.38 5.99 77.64 5.99C77.88 5.99 77.90 5.94 77.90 5.75C77.90 5.04 77.98 3.68 77.98 3.53C77.98 3.30 77.94 3.29 77.67 3.29C77.45 3.29 77.43 3.32 77.42 3.53C77.42 3.61 77.41 3.78 77.36 3.78C77.31 3.78 77.22 3.74 77.15 3.68C76.36 3.14 75.74 3.08 75.24 3.08C73.71 3.08 72.20 4.17 72.20 5.77ZM86.38 12.39C86.38 12.63 86.41 12.68 86.60 12.68C86.93 12.68 87.89 12.64 88.31 12.64C88.73 12.64 93.24 12.68 93.56 12.68C93.69 12.68 93.84 12.66 93.84 12.49C93.84 12.07 93.88 11.23 93.88 10.53C93.88 10.39 93.73 10.39 93.60 10.39C93.49 10.39 93.37 10.39 93.37 10.51C93.35 11.06 93.35 11.41 93.32 11.76C93.30 12.01 93.30 12.04 93.20 12.04C93.04 12.04 90.41 12.08 88.91 12.08C88.84 12.08 88.80 10.11 88.76 8.26C88.76 8.06 88.80 8.09 88.94 8.09L91.22 8.09C91.92 8.09 91.95 8.20 91.95 8.30L91.95 9.00C91.95 9.14 92.13 9.14 92.25 9.14C92.34 9.14 92.47 9.13 92.47 9.02C92.47 8.83 92.44 8.33 92.44 7.83C92.44 7.32 92.47 6.83 92.47 6.71C92.47 6.59 92.33 6.58 92.23 6.58C92.12 6.58 91.95 6.59 91.95 6.72L91.95 7.45C91.95 7.62 91.50 7.63 91.22 7.63L88.89 7.63C88.77 7.63 88.76 7.63 88.76 7.45C88.75 6.75 88.73 6.06 88.73 5.46C88.73 5.12 88.73 3.71 88.82 3.71C90.05 3.71 92.55 3.75 92.55 3.81C92.55 3.99 92.51 4.83 92.51 4.89C92.51 5.04 92.58 5.10 92.76 5.10C92.96 5.10 93.03 5.08 93.03 4.94C93.03 3.85 93.09 3.36 93.09 3.09C93.09 2.91 93.00 2.90 92.81 2.90C92.61 2.90 92.61 2.95 92.58 3.11C92.57 3.25 92.64 3.25 91.73 3.25C91.11 3.25 88.97 3.29 88.20 3.29C87.71 3.29 86.77 3.25 86.67 3.25C86.55 3.25 86.49 3.30 86.49 3.49C86.49 3.72 86.56 3.74 86.73 3.74L87.39 3.74C87.44 3.74 87.51 4.79 87.51 5.71C87.51 5.80 87.57 8.27 87.57 9.83L87.57 11.17C87.57 11.84 87.54 12.18 87.51 12.18L86.66 12.18C86.44 12.18 86.38 12.21 86.38 12.39ZM101.85 3.51C101.85 3.72 101.92 3.79 102.12 3.79L102.93 3.77C103.03 3.77 103.07 6.61 103.07 8.55L103.07 10.42C103.07 11.30 103.05 12.18 103.01 12.18L102.41 12.18C102.19 12.18 102.12 12.19 102.12 12.39C102.12 12.63 102.16 12.68 102.35 12.68C102.48 12.68 103.31 12.64 103.73 12.64C104.15 12.64 104.92 12.68 105.24 12.68C105.41 12.68 105.43 12.61 105.43 12.40C105.43 12.24 105.41 12.18 105.24 12.18L104.43 12.18C104.36 12.18 104.27 9.18 104.27 8.37C104.27 8.30 104.27 8.26 104.38 8.26C104.78 8.26 105.38 8.27 105.67 8.27C107.91 8.32 108.05 10.00 108.05 11.68L108.05 12.49C108.05 12.61 108.11 12.64 108.21 12.64C108.21 12.64 109.65 12.68 110.12 12.68C110.29 12.68 110.35 12.64 110.35 12.53C110.35 12.24 110.29 12.18 110.14 12.18L109.49 12.18C109.40 12.18 109.37 12.14 109.34 11.31C109.26 8.99 107.88 8.34 106.97 8.05C106.83 8.01 106.86 8.01 106.97 7.95C107.56 7.69 108.88 6.94 108.88 5.63C108.88 3.63 107.18 3.21 105.78 3.21C105.46 3.21 104.17 3.29 103.75 3.29C103.33 3.29 102.35 3.26 102.13 3.26C101.95 3.26 101.85 3.28 101.85 3.51ZM104.27 7.80L104.27 4.40C104.27 4.05 104.30 3.68 104.34 3.68C104.55 3.65 104.83 3.65 105.06 3.65C106.36 3.65 107.60 4.47 107.60 5.82C107.60 6.99 107.06 7.57 106.40 7.88C106.36 7.90 106.32 7.90 106.25 7.90C105.77 7.88 105.06 7.88 104.45 7.87C104.29 7.87 104.27 7.85 104.27 7.80ZM116.70 3.51C116.70 3.75 116.80 3.77 116.97 3.77L117.40 3.77C117.49 3.77 120.27 10.99 120.32 11.07C120.81 12.18 120.90 12.99 121.11 12.99C121.38 12.99 121.44 12.67 121.72 12.26C121.87 12.04 121.95 12.01 122.11 11.66L125.34 4.06C125.45 3.81 125.44 3.77 125.80 3.77C126.03 3.77 126.10 3.75 126.10 3.56C126.10 3.32 126.06 3.26 125.86 3.26C125.72 3.26 125.19 3.30 124.77 3.30C124.35 3.30 123.52 3.26 123.30 3.26C123.10 3.26 123.05 3.29 123.05 3.51C123.05 3.75 123.17 3.77 123.34 3.77L124.33 3.77C124.40 3.77 124.42 3.81 124.42 3.95C124.42 4.63 122.74 8.72 122.01 10.63C121.87 10.99 121.79 11.17 121.74 11.17C121.70 11.17 121.60 10.98 121.46 10.60C120.89 9.10 119.76 6.01 119.24 4.49C119.15 4.27 119.07 3.93 119.07 3.79L119.07 3.77L120.05 3.77C120.27 3.77 120.34 3.75 120.34 3.56C120.34 3.32 120.30 3.26 120.11 3.26C119.78 3.26 118.71 3.30 118.29 3.30C117.87 3.30 117.15 3.26 116.97 3.26C116.79 3.26 116.70 3.28 116.70 3.51ZM133.57 12.39C133.57 12.63 133.62 12.68 133.81 12.68C134.13 12.68 134.89 12.64 135.60 12.64C136.26 12.64 137.06 12.68 137.28 12.68C137.45 12.68 137.48 12.61 137.48 12.40C137.48 12.24 137.45 12.18 137.28 12.18L136.32 12.18C136.22 12.18 136.19 9.55 136.19 7.76L136.19 5.87C136.19 5.14 136.22 3.70 136.32 3.70L137.23 3.70C137.45 3.70 137.48 3.68 137.48 3.49C137.48 3.25 137.45 3.19 137.28 3.19C136.96 3.19 136.29 3.23 135.63 3.23C134.82 3.23 134.11 3.19 133.88 3.19C133.70 3.19 133.63 3.21 133.63 3.44C133.63 3.68 133.71 3.70 133.88 3.70L134.81 3.70C134.85 3.70 134.92 4.79 134.92 5.71L134.92 7.08C134.92 8.92 134.90 12.18 134.79 12.18L133.87 12.18C133.64 12.18 133.57 12.19 133.57 12.39ZM145.45 7.91C145.45 11.31 147.81 12.87 150.40 12.87C152.18 12.87 153.96 11.90 154 11.59C154.17 10.29 154.22 9.70 154.22 9.66C154.22 9.56 154.18 9.52 154.01 9.51C153.96 9.51 153.90 9.49 153.86 9.49C153.75 9.49 153.69 9.53 153.66 9.70L153.48 11.33C153.47 11.45 152.36 12.24 150.79 12.24C148.67 12.24 146.96 10.29 146.96 7.94C146.96 5.42 148.39 3.54 150.39 3.54C152.24 3.54 153.58 5.01 153.58 5.17C153.58 5.29 153.52 6.40 153.52 6.45C153.52 6.59 153.57 6.64 153.83 6.64C154.03 6.64 154.10 6.62 154.10 6.44C154.10 5.73 154.15 3.92 154.15 3.67C154.15 3.47 154.04 3.44 153.83 3.44C153.61 3.44 153.58 3.50 153.58 3.67L153.58 4.05C153.58 4.16 153.54 4.16 153.41 4.06C153.13 3.86 152.15 3.04 150.49 3.04C147.64 3.04 145.45 4.96 145.45 7.91ZM162.61 12.39C162.61 12.63 162.64 12.68 162.83 12.68C163.16 12.68 164.12 12.64 164.54 12.64C164.96 12.64 169.47 12.68 169.79 12.68C169.92 12.68 170.07 12.66 170.07 12.49C170.07 12.07 170.11 11.23 170.11 10.53C170.11 10.39 169.96 10.39 169.83 10.39C169.72 10.39 169.60 10.39 169.60 10.51C169.58 11.06 169.58 11.41 169.55 11.76C169.53 12.01 169.53 12.04 169.43 12.04C169.27 12.04 166.64 12.08 165.14 12.08C165.07 12.08 165.03 10.11 164.99 8.26C164.99 8.06 165.03 8.09 165.17 8.09L167.45 8.09C168.15 8.09 168.18 8.20 168.18 8.30L168.18 9.00C168.18 9.14 168.36 9.14 168.48 9.14C168.57 9.14 168.70 9.13 168.70 9.02C168.70 8.83 168.67 8.33 168.67 7.83C168.67 7.32 168.70 6.83 168.70 6.71C168.70 6.59 168.56 6.58 168.46 6.58C168.35 6.58 168.18 6.59 168.18 6.72L168.18 7.45C168.18 7.62 167.73 7.63 167.45 7.63L165.12 7.63C165.00 7.63 164.99 7.63 164.99 7.45C164.98 6.75 164.96 6.06 164.96 5.46C164.96 5.12 164.96 3.71 165.05 3.71C166.28 3.71 168.78 3.75 168.78 3.81C168.78 3.99 168.74 4.83 168.74 4.89C168.74 5.04 168.81 5.10 168.99 5.10C169.19 5.10 169.26 5.08 169.26 4.94C169.26 3.85 169.32 3.36 169.32 3.09C169.32 2.91 169.23 2.90 169.04 2.90C168.84 2.90 168.84 2.95 168.81 3.11C168.80 3.25 168.87 3.25 167.96 3.25C167.34 3.25 165.20 3.29 164.43 3.29C163.94 3.29 163.00 3.25 162.90 3.25C162.78 3.25 162.72 3.30 162.72 3.49C162.72 3.72 162.79 3.74 162.96 3.74L163.62 3.74C163.67 3.74 163.74 4.79 163.74 5.71C163.74 5.80 163.80 8.27 163.80 9.83L163.80 11.17C163.80 11.84 163.77 12.18 163.74 12.18L162.89 12.18C162.67 12.18 162.61 12.21 162.61 12.39ZM178.29 5.77C178.29 9.07 183.27 8.20 183.27 10.65C183.27 11.59 182.43 12.31 181.45 12.31C180.63 12.31 179.03 11.83 179.00 11.47L178.92 10.15C178.91 9.97 178.84 9.91 178.65 9.91L178.58 9.91C178.37 9.91 178.37 10.00 178.37 10.12C178.37 10.32 178.49 11.66 178.51 12.17C178.53 12.38 179.79 12.85 181.33 12.85C182.90 12.85 184.51 11.87 184.51 10.11C184.51 6.79 179.54 7.87 179.54 5.32C179.54 4.31 180.32 3.56 181.36 3.56C182.38 3.56 183.47 4.58 183.47 4.89C183.47 5.01 183.43 5.73 183.43 5.78C183.43 5.92 183.47 5.99 183.74 5.99C183.97 5.99 183.99 5.94 183.99 5.75C183.99 5.04 184.07 3.68 184.07 3.53C184.07 3.30 184.03 3.29 183.76 3.29C183.54 3.29 183.53 3.32 183.51 3.53C183.51 3.61 183.50 3.78 183.46 3.78C183.40 3.78 183.32 3.74 183.25 3.68C182.45 3.14 181.83 3.08 181.33 3.08C179.80 3.08 178.29 4.17 178.29 5.77ZM202.13 12.39C202.13 12.63 202.13 12.68 202.33 12.68C202.50 12.68 202.82 12.64 203.39 12.64C204.01 12.64 204.55 12.68 204.71 12.68C204.88 12.68 204.88 12.61 204.88 12.40C204.88 12.24 204.88 12.18 204.71 12.18L203.63 12.18C203.63 12.18 203.62 12.18 203.62 12.17C203.63 11.87 204.40 9.90 204.75 9.02C204.82 8.83 204.83 8.79 205.04 8.79L207.87 8.79C208.01 8.79 208.01 8.81 208.08 9.03C208.35 9.77 209.06 11.89 209.06 12.17C209.06 12.18 209.05 12.18 209.05 12.18L208.28 12.18C208.05 12.18 208.04 12.19 208.04 12.39C208.04 12.63 208.05 12.68 208.22 12.68C208.54 12.68 209.41 12.64 209.83 12.64C210.25 12.64 210.92 12.68 211.13 12.68C211.27 12.68 211.29 12.61 211.29 12.40C211.29 12.24 211.27 12.18 211.13 12.18L210.64 12.18C210.55 12.18 209.52 9.34 208.96 7.78L207.28 3.07C207.27 3.00 207.20 2.94 207.12 2.94C206.99 2.94 206.89 3.16 206.81 3.35C206.65 3.71 206.42 3.84 206.30 4.13L204.82 7.57C204.64 8.01 202.93 12.18 202.80 12.18L202.38 12.18C202.16 12.18 202.13 12.19 202.13 12.39ZM205.03 8.33C205.03 8.30 205.06 8.23 205.10 8.13L206.47 4.77C206.51 4.66 206.54 4.61 206.57 4.61C206.58 4.61 206.60 4.63 206.64 4.77L207.80 8.18C207.83 8.25 207.84 8.29 207.84 8.32C207.84 8.36 207.82 8.37 207.72 8.37L205.21 8.37C205.03 8.37 205.03 8.34 205.03 8.33ZM217.38 5.01C217.38 5.17 217.56 5.17 217.69 5.17C217.84 5.17 217.88 5.15 217.90 4.97L218.01 3.89C218.02 3.81 218.57 3.75 219.32 3.75L221.31 3.75C221.37 3.75 221.40 4.35 221.40 4.97C221.40 6.43 221.34 12.18 221.21 12.18L220.35 12.18C220.12 12.18 220.08 12.19 220.08 12.39C220.08 12.63 220.09 12.68 220.29 12.68C220.61 12.68 221.59 12.64 222.01 12.64C222.43 12.64 223.37 12.68 223.69 12.68C223.86 12.68 223.89 12.61 223.89 12.40C223.89 12.24 223.86 12.18 223.69 12.18L222.70 12.18C222.67 12.18 222.67 11.76 222.67 11.31C222.67 9.56 222.75 5.96 222.75 5.92C222.77 5.18 222.77 3.75 222.87 3.75L224.48 3.75C225.19 3.75 226.02 3.78 226.02 3.85C226.02 3.99 225.97 4.90 225.97 4.97C225.97 5.12 226.04 5.17 226.23 5.17C226.42 5.17 226.49 5.17 226.49 5.03C226.49 3.93 226.55 3.40 226.55 3.14C226.55 2.94 226.46 2.94 226.27 2.94C226.11 2.94 226.06 2.98 226.04 3.16C226.04 3.23 225.40 3.28 224.56 3.28L219.56 3.28C218.90 3.28 218.09 3.28 218.09 3.21L218.09 3.07C218.09 2.94 217.97 2.94 217.87 2.94C217.64 2.94 217.62 3.00 217.60 3.19C217.55 3.89 217.38 4.97 217.38 5.01ZM243.68 3.44C243.68 3.68 243.77 3.70 243.94 3.70L244.34 3.70C244.47 3.70 246.72 7.74 247.13 8.50C247.18 8.60 247.23 8.65 247.23 8.81C247.23 10.50 247.21 12.18 247.09 12.18L246.37 12.18C246.15 12.18 246.11 12.19 246.11 12.39C246.11 12.63 246.12 12.68 246.32 12.68C246.51 12.68 247.32 12.64 247.91 12.64C248.74 12.64 249.27 12.68 249.59 12.68C249.76 12.68 249.79 12.61 249.79 12.40C249.79 12.24 249.76 12.18 249.59 12.18L248.63 12.18C248.53 12.18 248.50 9.72 248.50 8.22C248.50 8.18 248.50 8.15 248.54 8.09C249.09 7.22 251.03 3.70 251.10 3.70L251.58 3.70C251.75 3.70 251.85 3.68 251.85 3.44C251.85 3.22 251.76 3.19 251.58 3.19C251.36 3.19 251.12 3.23 250.52 3.23C249.93 3.23 249.59 3.19 249.42 3.19C249.23 3.19 249.19 3.25 249.19 3.49C249.19 3.68 249.26 3.70 249.48 3.70L250.21 3.70C250.22 3.70 250.24 3.71 250.24 3.74C250.24 4.05 248.67 6.99 248.29 7.71C248.18 7.92 248.18 7.88 248.07 7.67C247.66 6.89 246.37 4.56 246.08 3.85C246.02 3.71 246.01 3.70 246.19 3.70L247.02 3.70C247.24 3.70 247.27 3.68 247.27 3.49C247.27 3.25 247.23 3.19 247.07 3.19C246.83 3.19 246.22 3.23 245.42 3.23C244.61 3.23 244.12 3.19 243.94 3.19C243.75 3.19 243.68 3.21 243.68 3.44ZM258.97 8.15C258.97 11.17 261.31 12.80 263.56 12.80C266.35 12.80 268.32 10.89 268.32 8.06C268.32 5.33 266.57 3.11 263.77 3.11C261.17 3.11 258.97 5.10 258.97 8.15ZM260.37 7.77C260.37 5.64 261.66 3.58 263.63 3.58C265.87 3.58 266.95 5.81 266.95 7.94C266.95 10.08 265.85 12.32 263.58 12.32C261.59 12.32 260.37 10.28 260.37 7.77ZM276.43 3.51C276.43 3.75 276.51 3.77 276.68 3.77L277.21 3.77C277.27 3.77 277.27 4.12 277.27 4.55C277.27 5.66 277.26 8.96 277.26 9.42C277.26 11.13 277.51 12.80 280.36 12.80C281.44 12.80 282.60 12.38 283.26 12.00C283.51 11.86 283.81 11.72 283.89 11.72C284.16 11.72 284.42 12.74 284.76 12.74C285.08 12.74 285.10 12.35 285.10 12.25C285.10 11.96 285.15 10.08 285.19 8.16C285.25 6.12 285.24 3.77 285.35 3.77L285.67 3.77C285.89 3.77 285.96 3.75 285.96 3.56C285.96 3.32 285.92 3.26 285.73 3.26C285.59 3.26 285.05 3.30 284.63 3.30C284.21 3.30 283.42 3.26 283.19 3.26C283.01 3.26 282.91 3.28 282.91 3.51C282.91 3.75 283.02 3.77 283.19 3.77L283.89 3.77C283.96 3.77 283.98 4.30 283.98 4.87L283.98 9.14C283.98 11.19 283.98 11.12 283.64 11.34C283.25 11.61 282.44 12.08 281.26 12.08C279.29 12.08 278.49 11.17 278.49 9.41C278.49 8.82 278.56 3.77 278.67 3.77L279.58 3.77C279.80 3.77 279.85 3.75 279.85 3.56C279.85 3.32 279.83 3.26 279.64 3.26C279.31 3.26 278.43 3.30 278.01 3.30C277.59 3.30 276.91 3.26 276.68 3.26C276.50 3.26 276.43 3.28 276.43 3.51ZM294 3.51C294 3.72 294.07 3.79 294.27 3.79L295.08 3.77C295.18 3.77 295.22 6.61 295.22 8.55L295.22 10.42C295.22 11.30 295.20 12.18 295.16 12.18L294.56 12.18C294.34 12.18 294.27 12.19 294.27 12.39C294.27 12.63 294.31 12.68 294.50 12.68C294.63 12.68 295.46 12.64 295.88 12.64C296.30 12.64 297.07 12.68 297.39 12.68C297.56 12.68 297.58 12.61 297.58 12.40C297.58 12.24 297.56 12.18 297.39 12.18L296.58 12.18C296.51 12.18 296.42 9.18 296.42 8.37C296.42 8.30 296.42 8.26 296.53 8.26C296.93 8.26 297.53 8.27 297.82 8.27C300.06 8.32 300.20 10.00 300.20 11.68L300.20 12.49C300.20 12.61 300.26 12.64 300.36 12.64C300.36 12.64 301.80 12.68 302.27 12.68C302.44 12.68 302.50 12.64 302.50 12.53C302.50 12.24 302.44 12.18 302.29 12.18L301.64 12.18C301.55 12.18 301.52 12.14 301.49 11.31C301.41 8.99 300.03 8.34 299.12 8.05C298.98 8.01 299.01 8.01 299.12 7.95C299.71 7.69 301.03 6.94 301.03 5.63C301.03 3.63 299.33 3.21 297.93 3.21C297.61 3.21 296.32 3.29 295.90 3.29C295.48 3.29 294.50 3.26 294.28 3.26C294.10 3.26 294 3.28 294 3.51ZM296.42 7.80L296.42 4.40C296.42 4.05 296.45 3.68 296.49 3.68C296.70 3.65 296.98 3.65 297.21 3.65C298.51 3.65 299.75 4.47 299.75 5.82C299.75 6.99 299.21 7.57 298.55 7.88C298.51 7.90 298.47 7.90 298.40 7.90C297.92 7.88 297.21 7.88 296.60 7.87C296.44 7.87 296.42 7.85 296.42 7.80ZM319.70 12.46C319.70 12.63 319.72 12.70 319.90 12.70C320.05 12.70 321.29 12.64 321.68 12.64C322.53 12.64 323.41 12.70 324.27 12.70C326.89 12.70 329.28 11.07 329.28 7.91C329.28 4.89 326.94 3.07 323.90 3.07C323.34 3.07 322.08 3.23 321.05 3.23C320.57 3.23 320.11 3.22 320.05 3.22C319.87 3.22 319.86 3.32 319.86 3.49C319.86 3.68 319.93 3.70 320.05 3.70L321.02 3.67C321.05 3.67 321.05 4.20 321.05 4.72C321.05 5.91 320.96 12.21 320.88 12.21L319.98 12.21C319.80 12.21 319.70 12.22 319.70 12.46ZM322.28 11.40C322.28 9.46 322.28 7.52 322.29 5.60C322.29 5.03 322.34 3.61 322.38 3.60C322.67 3.53 323.26 3.51 323.61 3.51C326.17 3.51 327.78 5.75 327.78 7.73C327.78 8.95 327.74 12.25 323.06 12.25C322.80 12.25 322.39 12.25 322.29 12.21C322.28 12.19 322.28 11.79 322.28 11.40ZM337.46 8.15C337.46 11.17 339.79 12.80 342.05 12.80C344.83 12.80 346.81 10.89 346.81 8.06C346.81 5.33 345.06 3.11 342.26 3.11C339.65 3.11 337.46 5.10 337.46 8.15ZM338.86 7.77C338.86 5.64 340.14 3.58 342.12 3.58C344.36 3.58 345.44 5.81 345.44 7.94C345.44 10.08 344.33 12.32 342.06 12.32C340.07 12.32 338.86 10.28 338.86 7.77ZM354.98 8.15C354.98 11.17 357.32 12.80 359.58 12.80C362.36 12.80 364.34 10.89 364.34 8.06C364.34 5.33 362.59 3.11 359.79 3.11C357.18 3.11 354.98 5.10 354.98 8.15ZM356.38 7.77C356.38 5.64 357.67 3.58 359.65 3.58C361.89 3.58 362.96 5.81 362.96 7.94C362.96 10.08 361.86 12.32 359.59 12.32C357.60 12.32 356.38 10.28 356.38 7.77ZM372.44 3.51C372.44 3.72 372.51 3.79 372.71 3.79L373.52 3.77C373.62 3.77 373.66 6.61 373.66 8.55L373.66 10.42C373.66 11.30 373.65 12.18 373.60 12.18L373.00 12.18C372.78 12.18 372.71 12.19 372.71 12.39C372.71 12.63 372.75 12.68 372.95 12.68C373.07 12.68 373.90 12.64 374.32 12.64C374.74 12.64 375.51 12.68 375.83 12.68C376.00 12.68 376.03 12.61 376.03 12.40C376.03 12.24 376.00 12.18 375.83 12.18L375.02 12.18C374.95 12.18 374.86 9.18 374.86 8.37C374.86 8.30 374.86 8.26 374.98 8.26C375.37 8.26 375.97 8.27 376.26 8.27C378.50 8.32 378.64 10.00 378.64 11.68L378.64 12.49C378.64 12.61 378.70 12.64 378.80 12.64C378.80 12.64 380.24 12.68 380.72 12.68C380.88 12.68 380.94 12.64 380.94 12.53C380.94 12.24 380.88 12.18 380.73 12.18L380.09 12.18C379.99 12.18 379.96 12.14 379.93 11.31C379.85 8.99 378.48 8.34 377.57 8.05C377.43 8.01 377.45 8.01 377.57 7.95C378.15 7.69 379.47 6.94 379.47 5.63C379.47 3.63 377.78 3.21 376.38 3.21C376.05 3.21 374.77 3.29 374.35 3.29C373.93 3.29 372.95 3.26 372.72 3.26C372.54 3.26 372.44 3.28 372.44 3.51ZM374.86 7.80L374.86 4.40C374.86 4.05 374.89 3.68 374.93 3.68C375.14 3.65 375.42 3.65 375.65 3.65C376.95 3.65 378.20 4.47 378.20 5.82C378.20 6.99 377.65 7.57 376.99 7.88C376.95 7.90 376.91 7.90 376.84 7.90C376.36 7.88 375.65 7.88 375.05 7.87C374.88 7.87 374.86 7.85 374.86 7.80ZM388.63 5.77C388.63 9.07 393.61 8.20 393.61 10.65C393.61 11.59 392.77 12.31 391.79 12.31C390.96 12.31 389.37 11.83 389.34 11.47L389.26 10.15C389.24 9.97 389.17 9.91 388.99 9.91L388.92 9.91C388.71 9.91 388.71 10.00 388.71 10.12C388.71 10.32 388.82 11.66 388.85 12.17C388.86 12.38 390.12 12.85 391.66 12.85C393.23 12.85 394.84 11.87 394.84 10.11C394.84 6.79 389.87 7.87 389.87 5.32C389.87 4.31 390.66 3.56 391.69 3.56C392.71 3.56 393.81 4.58 393.81 4.89C393.81 5.01 393.76 5.73 393.76 5.78C393.76 5.92 393.81 5.99 394.07 5.99C394.31 5.99 394.32 5.94 394.32 5.75C394.32 5.04 394.41 3.68 394.41 3.53C394.41 3.30 394.37 3.29 394.10 3.29C393.88 3.29 393.86 3.32 393.85 3.53C393.85 3.61 393.83 3.78 393.79 3.78C393.74 3.78 393.65 3.74 393.58 3.68C392.78 3.14 392.17 3.08 391.66 3.08C390.14 3.08 388.63 4.17 388.63 5.77ZM402.40 5.01C402.40 5.17 402.58 5.17 402.71 5.17C402.86 5.17 402.91 5.15 402.92 4.97L403.03 3.89C403.05 3.81 403.59 3.75 404.35 3.75L406.34 3.75C406.39 3.75 406.42 4.35 406.42 4.97C406.42 6.43 406.36 12.18 406.24 12.18L405.37 12.18C405.15 12.18 405.10 12.19 405.10 12.39C405.10 12.63 405.12 12.68 405.31 12.68C405.64 12.68 406.62 12.64 407.04 12.64C407.46 12.64 408.39 12.68 408.72 12.68C408.88 12.68 408.91 12.61 408.91 12.40C408.91 12.24 408.88 12.18 408.72 12.18L407.72 12.18C407.69 12.18 407.69 11.76 407.69 11.31C407.69 9.56 407.78 5.96 407.78 5.92C407.79 5.18 407.79 3.75 407.89 3.75L409.50 3.75C410.21 3.75 411.04 3.78 411.04 3.85C411.04 3.99 411.00 4.90 411.00 4.97C411.00 5.12 411.07 5.17 411.25 5.17C411.45 5.17 411.52 5.17 411.52 5.03C411.52 3.93 411.57 3.40 411.57 3.14C411.57 2.94 411.49 2.94 411.29 2.94C411.14 2.94 411.08 2.98 411.07 3.16C411.07 3.23 410.42 3.28 409.58 3.28L404.59 3.28C403.93 3.28 403.12 3.28 403.12 3.21L403.12 3.07C403.12 2.94 402.99 2.94 402.89 2.94C402.67 2.94 402.64 3.00 402.63 3.19C402.57 3.89 402.40 4.97 402.40 5.01ZM419.33 12.39C419.33 12.63 419.36 12.68 419.55 12.68C419.87 12.68 420.84 12.64 421.26 12.64C421.68 12.64 426.19 12.68 426.51 12.68C426.64 12.68 426.79 12.66 426.79 12.49C426.79 12.07 426.83 11.23 426.83 10.53C426.83 10.39 426.68 10.39 426.55 10.39C426.44 10.39 426.31 10.39 426.31 10.51C426.30 11.06 426.30 11.41 426.27 11.76C426.24 12.01 426.24 12.04 426.15 12.04C425.99 12.04 423.36 12.08 421.86 12.08C421.79 12.08 421.75 10.11 421.71 8.26C421.71 8.06 421.75 8.09 421.89 8.09L424.17 8.09C424.87 8.09 424.90 8.20 424.90 8.30L424.90 9.00C424.90 9.14 425.08 9.14 425.19 9.14C425.29 9.14 425.42 9.13 425.42 9.02C425.42 8.83 425.39 8.33 425.39 7.83C425.39 7.32 425.42 6.83 425.42 6.71C425.42 6.59 425.28 6.58 425.18 6.58C425.07 6.58 424.90 6.59 424.90 6.72L424.90 7.45C424.90 7.62 424.45 7.63 424.17 7.63L421.83 7.63C421.72 7.63 421.71 7.63 421.71 7.45C421.69 6.75 421.68 6.06 421.68 5.46C421.68 5.12 421.68 3.71 421.76 3.71C423.00 3.71 425.50 3.75 425.50 3.81C425.50 3.99 425.46 4.83 425.46 4.89C425.46 5.04 425.53 5.10 425.71 5.10C425.91 5.10 425.98 5.08 425.98 4.94C425.98 3.85 426.03 3.36 426.03 3.09C426.03 2.91 425.95 2.90 425.75 2.90C425.56 2.90 425.56 2.95 425.53 3.11C425.52 3.25 425.59 3.25 424.68 3.25C424.06 3.25 421.92 3.29 421.15 3.29C420.66 3.29 419.72 3.25 419.62 3.25C419.50 3.25 419.44 3.30 419.44 3.49C419.44 3.72 419.51 3.74 419.68 3.74L420.34 3.74C420.39 3.74 420.46 4.79 420.46 5.71C420.46 5.80 420.52 8.27 420.52 9.83L420.52 11.17C420.52 11.84 420.49 12.18 420.46 12.18L419.61 12.18C419.38 12.18 419.33 12.21 419.33 12.39ZM434.80 3.51C434.80 3.75 434.84 3.79 435.05 3.79L435.97 3.77C436.03 3.77 436.03 4.47 436.03 5.24L436.03 5.96C436.03 7.70 436.02 12.18 435.90 12.18L435.23 12.18C435.01 12.18 434.94 12.19 434.94 12.39C434.94 12.63 434.95 12.68 435.15 12.68C435.27 12.68 436.25 12.64 436.67 12.64C437.09 12.64 437.96 12.68 438.28 12.68C438.45 12.68 438.48 12.61 438.48 12.40C438.48 12.24 438.45 12.18 438.28 12.18L437.29 12.18C437.25 12.18 437.23 10.60 437.23 9.58L437.23 8.65C437.23 8.57 437.23 8.54 437.33 8.54C437.72 8.54 438.05 8.58 438.55 8.58C440.54 8.58 441.94 7.83 441.94 6.01C441.94 4.09 440.45 3.22 438.54 3.22C438.21 3.22 437.12 3.29 436.70 3.29C436.46 3.29 435.27 3.26 435.05 3.26C434.87 3.26 434.80 3.28 434.80 3.51ZM437.25 8.05L437.25 4.40C437.25 4.05 437.26 3.70 437.30 3.68C437.43 3.67 437.60 3.67 437.74 3.67C439.39 3.67 440.65 4.47 440.65 5.80C440.65 7.57 439.32 8.19 437.74 8.19C437.49 8.19 437.25 8.16 437.25 8.05Z"></path></g></svg>