<svg data-v-fde0c5aa="" xmlns="http://www.w3.org/2000/svg" viewBox="0 0 300 300" class="font"><!----><defs data-v-fde0c5aa=""><!----></defs><rect data-v-fde0c5aa="" fill="transparent" x="0" y="0" width="300px" height="300px" class="logo-background-square"></rect><defs data-v-fde0c5aa=""><linearGradient data-v-fde0c5aa="" gradientTransform="rotate(25)" id="41f1bb52-bb64-4d61-935e-54afbe560572" x1="0%" y1="0%" x2="100%" y2="0%"><stop data-v-fde0c5aa="" offset="0%" stop-color="#5106FF" stop-opacity="1"></stop><stop data-v-fde0c5aa="" offset="100%" stop-color="#61CBF2" stop-opacity="1"></stop></linearGradient></defs><g data-v-fde0c5aa="" id="e067988b-4a22-47e6-9e77-b0f940e15740" fill="url(#41f1bb52-bb64-4d61-935e-54afbe560572)" transform="matrix(2.551612118826712,0,0,2.551612118826712,37.98422652346318,122.58292746686406)"><path d="M0.79 11.90L0.79 11.90L0.79 11.90Q0.79 11.10 1.70 11.10L1.70 11.10L1.70 11.10Q2.17 11.10 2.62 11.34L2.62 11.34L2.62 11.34Q2.62 12.21 2.98 12.67L2.98 12.67L2.98 12.67Q3.34 13.13 4.22 13.13L4.22 13.13L4.22 13.13Q5.10 13.13 5.51 12.80L5.51 12.80L5.51 12.80Q5.92 12.46 5.92 11.73L5.92 11.73L5.92 11.73Q5.92 10.95 5.32 10.40L5.32 10.40L5.32 10.40Q4.83 9.94 4.18 9.60L4.18 9.60L4.18 9.60Q3.53 9.27 3.13 9.05L3.13 9.05L3.13 9.05Q2.73 8.84 2.38 8.58L2.38 8.58L2.38 8.58Q2.02 8.32 1.74 8.02L1.74 8.02L1.74 8.02Q1.13 7.37 1.13 6.46L1.13 6.46L1.13 6.46Q1.13 5.56 1.61 4.94L1.61 4.94L1.61 4.94Q2.53 3.72 4.61 3.72L4.61 3.72L4.61 3.72Q6.21 3.72 7.05 4.38L7.05 4.38L7.05 4.38Q7.81 4.99 7.81 5.74L7.81 5.74L7.81 5.74Q7.81 6.08 7.58 6.31L7.58 6.31L7.58 6.31Q7.34 6.54 6.85 6.54L6.85 6.54L6.85 6.54Q6.36 6.54 5.84 6.28L5.84 6.28L5.84 6.28Q5.84 6.23 5.84 6.19L5.84 6.19L5.84 6.19Q5.84 5.43 5.50 4.98L5.50 4.98L5.50 4.98Q5.16 4.52 4.48 4.52L4.48 4.52L4.48 4.52Q3.79 4.52 3.39 4.90L3.39 4.90L3.39 4.90Q2.99 5.28 2.99 6.03L2.99 6.03L2.99 6.03Q2.99 6.67 3.62 7.16L3.62 7.16L3.62 7.16Q4.06 7.50 4.77 7.85L4.77 7.85L4.77 7.85Q5.48 8.21 5.90 8.43L5.90 8.43L5.90 8.43Q6.31 8.65 6.69 8.93L6.69 8.93L6.69 8.93Q7.06 9.21 7.35 9.54L7.35 9.54L7.35 9.54Q7.98 10.25 7.98 11.17L7.98 11.17L7.98 11.17Q7.98 12.10 7.48 12.74L7.48 12.74L7.48 12.74Q6.98 13.38 6.15 13.71L6.15 13.71L6.15 13.71Q5.31 14.04 4.47 14.04L4.47 14.04L4.47 14.04Q3.62 14.04 3.04 13.91L3.04 13.91L3.04 13.91Q2.46 13.77 2.06 13.55L2.06 13.55L2.06 13.55Q1.65 13.33 1.36 13.05L1.36 13.05L1.36 13.05Q0.79 12.50 0.79 11.90ZM11.38 10.85L11.38 10.85Q11.59 11.86 12.26 12.48L12.26 12.48L12.26 12.48Q12.93 13.10 13.82 13.10L13.82 13.10L13.82 13.10Q14.72 13.10 15.63 12.33L15.63 12.33L15.63 12.33Q15.97 12.56 16.04 12.87L16.04 12.87L16.04 12.87Q15.42 13.60 14.18 13.91L14.18 13.91L14.18 13.91Q13.69 14.04 13.03 14.04L13.03 14.04L13.03 14.04Q12.38 14.04 11.68 13.81L11.68 13.81L11.68 13.81Q10.99 13.57 10.44 13.12L10.44 13.12L10.44 13.12Q9.88 12.67 9.56 11.93L9.56 11.93L9.56 11.93Q9.24 11.20 9.24 10.30L9.24 10.30L9.24 10.30Q9.24 9.41 9.57 8.68L9.57 8.68L9.57 8.68Q9.90 7.95 10.44 7.49L10.44 7.49L10.44 7.49Q11.57 6.51 13.02 6.51L13.02 6.51L13.02 6.51Q14.30 6.51 15.24 7.20L15.24 7.20L15.24 7.20Q15.69 7.54 15.96 8.08L15.96 8.08L15.96 8.08Q16.23 8.63 16.23 9.31L16.23 9.31L16.23 9.31Q16.23 10.48 15.46 10.54L15.46 10.54L11.38 10.85ZM14.39 9.11L14.39 9.11Q14.39 8.29 13.94 7.83L13.94 7.83L13.94 7.83Q13.49 7.38 12.76 7.38L12.76 7.38L12.76 7.38Q12.02 7.38 11.65 8.06L11.65 8.06L11.65 8.06Q11.27 8.75 11.27 9.97L11.27 9.97L11.27 9.97Q12.97 9.78 14.35 9.58L14.35 9.58L14.35 9.58Q14.39 9.33 14.39 9.11L14.39 9.11ZM22.15 9.30L22.15 9.21L22.15 9.21Q22.15 8.05 21.62 8.05L21.62 8.05L21.62 8.05Q21.23 8.05 20.87 8.27L20.87 8.27L20.87 8.27Q20.51 8.49 20.10 8.89L20.10 8.89L20.10 8.89Q20.10 9.57 20.06 13.82L20.06 13.82L20.06 13.82Q19.30 13.95 18.82 13.95L18.82 13.95L18.82 13.95Q18.34 13.95 17.99 13.82L17.99 13.82L17.99 13.82Q18.07 12.68 18.07 9.93L18.07 9.93L18.07 8.33L18.07 8.33Q18.07 7.81 17.71 7.71L17.71 7.71L17.71 7.71Q17.47 7.64 17.05 7.60L17.05 7.60L17.05 7.60Q17.00 7.40 17.00 7.29L17.00 7.29L17.00 7.29Q17.00 7.18 17.01 7.12L17.01 7.12L17.01 7.12Q17.99 6.57 19.44 6.57L19.44 6.57L19.44 6.57Q19.68 6.57 19.80 6.58L19.80 6.58L19.80 6.58Q20.00 6.92 20.03 7.29L20.03 7.29L20.03 7.29Q20.07 7.66 20.09 7.99L20.09 7.99L20.09 7.99Q21.01 6.88 21.64 6.64L21.64 6.64L21.64 6.64Q21.94 6.52 22.27 6.52L22.27 6.52L22.27 6.52Q22.96 6.52 23.37 6.90L23.37 6.90L23.37 6.90Q23.78 7.28 23.78 8.01L23.78 8.01L23.78 8.01Q23.78 8.57 23.37 8.95L23.37 8.95L23.37 8.95Q22.97 9.32 22.39 9.32L22.39 9.32L22.39 9.32Q22.27 9.32 22.15 9.30L22.15 9.30ZM30.63 6.37L30.63 6.37L30.63 6.37Q31.92 6.37 31.92 7.60L31.92 7.60L31.92 7.60Q31.92 8.55 30.92 10.21L30.92 10.21L30.92 10.21Q29.63 12.33 28.95 13.96L28.95 13.96L28.95 13.96Q28.70 14.05 28.40 14.05L28.40 14.05L28.40 14.05Q28.10 14.05 27.82 13.94L27.82 13.94L27.82 13.94Q27.53 13.82 27.42 13.68L27.42 13.68L27.42 13.68Q27.32 13.54 26.96 12.64L26.96 12.64L26.96 12.64Q26.60 11.74 26.21 10.77L26.21 10.77L26.21 10.77Q25.81 9.79 25.33 8.88L25.33 8.88L25.33 8.88Q24.84 7.97 24.51 7.77L24.51 7.77L24.51 7.77Q24.40 7.70 23.86 7.66L23.86 7.66L23.86 7.66Q23.85 7.60 23.84 7.54L23.84 7.54L23.84 7.54Q23.82 7.47 23.82 7.44L23.82 7.44L23.82 7.44Q23.80 7.29 23.82 7.18L23.82 7.18L23.82 7.18Q24.81 6.62 26.04 6.62L26.04 6.62L26.04 6.62Q26.26 6.62 26.37 6.63L26.37 6.63L26.37 6.63Q26.65 6.92 27.21 8.29L27.21 8.29L27.21 8.29Q27.77 9.65 28.60 12.30L28.60 12.30L28.60 12.30Q30.07 8.03 30.14 7.35L30.14 7.35L30.14 7.35Q30.16 7.18 30.16 6.96L30.16 6.96L30.16 6.96Q30.16 6.75 30.03 6.55L30.03 6.55L30.03 6.55Q30.03 6.49 30.23 6.43L30.23 6.43L30.23 6.43Q30.43 6.37 30.63 6.37ZM33.74 3.33L33.74 3.33L33.74 3.33Q34.15 2.99 34.62 2.99L34.62 2.99L34.62 2.99Q35.09 2.99 35.40 3.28L35.40 3.28L35.40 3.28Q35.70 3.57 35.70 4.09L35.70 4.09L35.70 4.09Q35.70 4.62 35.31 4.98L35.31 4.98L35.31 4.98Q34.91 5.34 34.40 5.34L34.40 5.34L34.40 5.34Q33.89 5.34 33.60 5.02L33.60 5.02L33.60 5.02Q33.31 4.71 33.31 4.22L33.31 4.22L33.31 4.22Q33.31 3.73 33.74 3.33ZM33.56 8.33L33.56 8.33L33.56 8.33Q33.56 7.81 33.20 7.71L33.20 7.71L33.20 7.71Q32.96 7.64 32.54 7.60L32.54 7.60L32.54 7.60Q32.49 7.40 32.49 7.29L32.49 7.29L32.49 7.29Q32.49 7.18 32.50 7.12L32.50 7.12L32.50 7.12Q33.48 6.57 34.97 6.57L34.97 6.57L34.97 6.57Q35.21 6.57 35.32 6.58L35.32 6.58L35.32 6.58Q35.51 6.88 35.59 7.75L35.59 7.75L35.59 7.75Q35.64 8.15 35.64 8.95L35.64 8.95L35.64 8.95Q35.64 9.75 35.59 13.82L35.59 13.82L35.59 13.82Q34.83 13.95 34.33 13.95L34.33 13.95L34.33 13.95Q33.82 13.95 33.48 13.82L33.48 13.82L33.48 13.82Q33.60 12.17 33.60 10.87L33.60 10.87L33.60 10.87Q33.60 9.56 33.56 8.33ZM39.90 6.83L39.90 7.40L41.45 7.46L41.45 7.46Q41.64 7.46 41.73 7.46L41.73 7.46L41.73 7.46Q41.76 7.46 41.76 7.88L41.76 7.88L41.76 7.88Q41.76 8.30 41.73 8.30L41.73 8.30L41.73 8.30Q40.93 8.39 39.90 8.39L39.90 8.39L39.90 8.39Q39.90 12.77 40.04 13.79L40.04 13.79L40.04 13.79Q39.69 13.93 39.06 13.93L39.06 13.93L39.06 13.93Q38.43 13.93 37.98 13.80L37.98 13.80L37.98 13.80Q37.91 10.55 37.91 8.31L37.91 8.31L37.91 8.31Q37.31 8.24 36.85 8.24L36.85 8.24L36.85 8.24Q36.81 8.19 36.81 7.84L36.81 7.84L36.81 7.84Q36.81 7.49 36.85 7.46L36.85 7.46L36.85 7.46Q37.31 7.40 37.91 7.38L37.91 7.38L37.91 7.38Q37.94 6.06 37.95 5.73L37.95 5.73L37.95 5.73Q37.97 5.40 38.13 4.89L38.13 4.89L38.13 4.89Q38.29 4.38 38.54 4.05L38.54 4.05L38.54 4.05Q38.79 3.72 39.12 3.49L39.12 3.49L39.12 3.49Q39.72 3.09 40.44 3.09L40.44 3.09L40.44 3.09Q41.15 3.09 41.62 3.23L41.62 3.23L41.62 3.23Q42.10 3.38 42.39 3.73L42.39 3.73L42.39 3.73Q42.68 4.08 42.68 4.60L42.68 4.60L42.68 4.60Q42.68 5.13 42.43 5.47L42.43 5.47L42.43 5.47Q42.18 5.81 41.62 5.81L41.62 5.81L41.62 5.81Q41.37 5.81 41.16 5.71L41.16 5.71L41.16 5.71Q40.95 5.62 40.87 5.53L40.87 5.53L40.87 5.53Q40.78 5.45 40.78 5.43L40.78 5.43L40.78 5.43Q40.83 5.21 40.83 4.88L40.83 4.88L40.83 4.88Q40.83 4.55 40.67 4.29L40.67 4.29L40.67 4.29Q40.50 4.03 40.20 4.03L40.20 4.03L40.20 4.03Q39.90 4.03 39.73 4.24L39.73 4.24L39.73 4.24Q39.55 4.46 39.55 4.81L39.55 4.81L39.55 4.81Q39.55 5.15 39.73 5.87L39.73 5.87L39.73 5.87Q39.90 6.58 39.90 6.83L39.90 6.83ZM43.74 15.74L43.74 15.74L43.74 15.74Q43.81 16.02 44.00 16.24L44.00 16.24L44.00 16.24Q44.19 16.46 44.46 16.46L44.46 16.46L44.46 16.46Q44.91 16.46 45.29 15.88L45.29 15.88L45.29 15.88Q45.67 15.29 45.94 14.23L45.94 14.23L45.94 14.23Q45.81 13.84 45.18 12.48L45.18 12.48L45.18 12.48Q44.56 11.11 43.71 9.56L43.71 9.56L43.71 9.56Q42.76 7.84 42.31 7.69L42.31 7.69L42.31 7.69Q42.21 7.66 42.09 7.65L42.09 7.65L42.09 7.65Q41.97 7.64 41.88 7.64L41.88 7.64L41.88 7.64Q41.79 7.63 41.76 7.63L41.76 7.63L41.76 7.63Q41.71 7.29 41.71 7.25L41.71 7.25L41.71 7.25Q41.71 7.21 41.72 7.15L41.72 7.15L41.72 7.15Q42.82 6.54 43.77 6.54L43.77 6.54L43.77 6.54Q44.17 6.54 44.55 6.69L44.55 6.69L44.55 6.69Q44.93 6.85 45.53 8.29L45.53 8.29L45.53 8.29Q46.14 9.73 46.90 12.53L46.90 12.53L46.90 12.53Q47.80 9.51 48.30 7.63L48.30 7.63L48.30 7.63Q48.44 7.08 48.81 6.80L48.81 6.80L48.81 6.80Q49.17 6.52 49.52 6.52L49.52 6.52L49.52 6.52Q50.53 6.52 50.80 7.31L50.80 7.31L50.80 7.31Q50.72 7.31 50.48 7.56L50.48 7.56L50.48 7.56Q50.24 7.82 49.95 8.26L49.95 8.26L49.95 8.26Q49.66 8.70 49.32 9.45L49.32 9.45L49.32 9.45Q48.97 10.21 48.68 11.00L48.68 11.00L48.68 11.00Q48.39 11.79 48.05 12.69L48.05 12.69L48.05 12.69Q47.71 13.59 47.39 14.41L47.39 14.41L47.39 14.41Q47.07 15.22 46.68 15.98L46.68 15.98L46.68 15.98Q46.29 16.74 45.90 17.29L45.90 17.29L45.90 17.29Q45.51 17.84 45.03 18.17L45.03 18.17L45.03 18.17Q44.54 18.50 44.09 18.50L44.09 18.50L44.09 18.50Q43.63 18.50 43.34 18.38L43.34 18.38L43.34 18.38Q43.04 18.25 42.88 18.04L42.88 18.04L42.88 18.04Q42.56 17.61 42.56 17.11L42.56 17.11L42.56 17.11Q42.56 16.60 42.90 16.23L42.90 16.23L42.90 16.23Q43.24 15.85 43.74 15.74ZM60.77 6.57L60.77 6.57L60.77 6.57Q60.77 5.56 60.43 5.14L60.43 5.14L60.43 5.14Q60.09 4.73 59.29 4.73L59.29 4.73L59.29 4.73Q58.49 4.73 57.93 5.35L57.93 5.35L57.93 6.80L57.93 6.80Q57.84 6.93 57.60 7.04L57.60 7.04L57.60 7.04Q57.36 7.15 57.00 7.15L57.00 7.15L57.00 7.15Q56.64 7.15 56.44 6.95L56.44 6.95L56.44 6.95Q56.25 6.74 56.17 6.27L56.17 6.27L56.17 6.27Q56.09 5.80 56.09 5.42L56.09 5.42L56.09 5.42Q56.09 5.04 56.23 4.89L56.23 4.89L56.23 4.89Q56.36 4.73 56.62 4.55L56.62 4.55L56.62 4.55Q56.88 4.36 57.26 4.16L57.26 4.16L57.26 4.16Q58.13 3.71 59.21 3.71L59.21 3.71L59.21 3.71Q60.29 3.71 61.04 3.99L61.04 3.99L61.04 3.99Q61.80 4.27 62.26 4.88L62.26 4.88L62.26 4.88Q62.71 5.50 62.71 6.40L62.71 6.40L62.71 6.40Q62.71 7.48 62.12 8.35L62.12 8.35L62.12 8.35Q61.51 9.23 60.74 9.82L60.74 9.82L60.74 9.82Q60.05 10.38 59.32 10.84L59.32 10.84L59.32 10.84Q57.85 11.78 57.85 12.51L57.85 12.51L57.85 12.51Q57.85 12.64 57.89 12.72L57.89 12.72L57.89 12.72Q58.39 12.68 59.54 12.62L59.54 12.62L59.54 12.62Q60.70 12.56 61.20 12.52L61.20 12.52L61.30 11.66L61.30 11.66Q61.39 11.53 61.63 11.42L61.63 11.42L61.63 11.42Q61.87 11.31 62.23 11.31L62.23 11.31L62.23 11.31Q62.59 11.31 62.78 11.51L62.78 11.51L62.78 11.51Q63.14 11.88 63.14 13.12L63.14 13.12L63.14 13.12Q63.14 13.65 63.01 13.79L63.01 13.79L63.01 13.79Q62.42 13.80 57.63 13.80L57.63 13.80L56.66 13.80L56.66 13.80Q56.46 13.80 56.36 13.43L56.36 13.43L56.36 13.43Q56.26 13.05 56.26 12.69L56.26 12.69L56.26 12.69Q56.43 11.59 57.35 10.68L57.35 10.68L57.35 10.68Q57.76 10.28 58.23 9.91L58.23 9.91L58.23 9.91Q58.69 9.53 59.14 9.17L59.14 9.17L59.14 9.17Q59.59 8.80 59.95 8.43L59.95 8.43L59.95 8.43Q60.77 7.58 60.77 6.57ZM70.43 4.45L70.43 4.45L70.38 6.40L70.38 10.61L70.38 10.61Q71.22 10.56 71.52 10.37L71.52 10.37L71.52 10.37Q71.78 10.51 71.78 10.94L71.78 10.94L71.78 10.94Q71.78 11.37 71.40 11.69L71.40 11.69L71.40 11.69Q71.02 12.01 70.39 12.09L70.39 12.09L70.39 12.09Q70.44 13.11 70.55 13.76L70.55 13.76L70.55 13.76Q69.96 13.95 69.36 13.95L69.36 13.95L69.36 13.95Q68.77 13.95 68.46 13.76L68.46 13.76L68.46 13.76Q68.53 12.74 68.56 12.01L68.56 12.01L68.56 12.01Q66.73 11.85 65.89 11.85L65.89 11.85L65.89 11.85Q65.05 11.85 64.43 12.00L64.43 12.00L64.43 12.00Q64.31 11.83 64.21 11.46L64.21 11.46L64.21 11.46Q64.12 11.09 64.12 10.86L64.12 10.86L64.12 10.86Q64.12 10.62 64.15 10.53L64.15 10.53L64.15 10.53Q66.31 7.44 68.41 3.89L68.41 3.89L68.41 3.89Q68.95 3.71 69.43 3.71L69.43 3.71L69.43 3.71Q69.91 3.71 70.32 3.78L70.32 3.78L70.32 3.78Q70.43 3.94 70.43 4.45ZM65.54 10.51L65.54 10.51L65.54 10.51Q65.87 10.45 66.44 10.45L66.44 10.45L66.44 10.45Q67.01 10.45 68.57 10.55L68.57 10.55L68.57 10.55Q68.58 9.24 68.58 5.76L68.58 5.76L68.58 5.76Q67.98 6.67 66.98 8.26L66.98 8.26L66.98 8.26Q65.98 9.86 65.54 10.51ZM72.55 7.44L72.55 7.44L72.55 7.44Q72.50 7.12 72.50 7.09L72.50 7.09L72.50 7.09Q72.50 7.03 72.51 6.97L72.51 6.97L72.51 6.97Q73.38 6.64 74.28 6.64L74.28 6.64L74.28 6.64Q74.59 6.64 75.11 6.71L75.11 6.71L75.11 6.71Q75.27 6.77 75.41 6.92L75.41 6.92L75.41 6.92Q75.54 7.06 75.74 7.39L75.74 7.39L75.74 7.39Q75.93 7.71 76.71 9.11L76.71 9.11L76.71 9.11Q77.53 7.58 77.88 6.73L77.88 6.73L77.88 6.73Q78.41 6.60 78.89 6.60L78.89 6.60L78.89 6.60Q79.38 6.60 79.79 6.72L79.79 6.72L79.79 6.72Q78.78 8.35 77.27 10.08L77.27 10.08L77.27 10.08Q78.47 12.13 79.83 13.04L79.83 13.04L79.83 13.04Q79.83 13.46 79.51 13.74L79.51 13.74L79.51 13.74Q79.19 14.02 78.74 14.02L78.74 14.02L78.74 14.02Q78.68 14.02 78.49 14.01L78.49 14.01L78.49 14.01Q78.29 14 77.97 13.82L77.97 13.82L77.97 13.82Q77.64 13.64 77.38 13.38L77.38 13.38L77.38 13.38Q77.11 13.13 76.80 12.69L76.80 12.69L76.80 12.69Q76.34 12.04 75.76 11.03L75.76 11.03L75.76 11.03Q75.61 11.29 75.14 12.25L75.14 12.25L75.14 12.25Q74.68 13.21 74.37 13.80L74.37 13.80L74.37 13.80Q73.84 13.94 73.36 13.94L73.36 13.94L73.36 13.94Q72.88 13.94 72.47 13.82L72.47 13.82L72.47 13.82Q72.86 13.09 73.82 11.85L73.82 11.85L73.82 11.85Q74.77 10.60 75.22 10.09L75.22 10.09L75.22 10.09Q74.22 8.34 73.54 7.75L73.54 7.75L73.54 7.75Q73.16 7.44 72.55 7.44ZM80.47 3.86L80.47 3.86L80.47 3.86Q83.04 4.01 86.82 4.01L86.82 4.01L86.82 4.01Q87.01 4.46 87.01 4.86L87.01 4.86L87.01 4.86Q87.01 5.26 86.83 5.61L86.83 5.61L86.83 5.61Q86.65 5.97 86.00 7.06L86.00 7.06L86.00 7.06Q85.35 8.16 85.16 8.57L85.16 8.57L85.16 8.57Q84.97 8.99 84.85 9.32L84.85 9.32L84.85 9.32Q84.73 9.65 84.66 10.15L84.66 10.15L84.66 10.15Q84.47 11.56 84.47 12.29L84.47 12.29L84.47 12.29Q84.47 13.03 84.56 13.76L84.56 13.76L84.56 13.76Q84.07 13.91 83.39 13.91L83.39 13.91L83.39 13.91Q82.71 13.91 82.30 13.76L82.30 13.76L82.30 13.76Q82.30 10.89 82.94 9.43L82.94 9.43L82.94 9.43Q83.39 8.42 84.44 6.92L84.44 6.92L84.44 6.92Q85.16 5.90 85.67 5.00L85.67 5.00L82.17 5.19L82.17 6.02L82.17 6.02Q82.07 6.24 81.77 6.31L81.77 6.31L81.77 6.31Q81.48 6.38 81.28 6.38L81.28 6.38L81.28 6.38Q80.77 6.38 80.56 6.03L80.56 6.03L80.56 6.03Q80.36 5.67 80.36 4.82L80.36 4.82L80.36 4.82Q80.36 3.97 80.47 3.86Z"></path></g><!----><!----></svg>