<?xml version="1.0" encoding="utf-8"?>
<svg xmlns="http://www.w3.org/2000/svg" style="margin: auto; display: block; shape-rendering: auto;" width="280" height="131" preserveAspectRatio="xMidYMid">
<style type="text/css">
  text {
    text-anchor: middle; font-size: 67px; opacity: 0;
  }
</style>
<g style="transform-origin: 140px 65.5px; transform: scale(0.697917);">
<g transform="translate(140,65.5)">
  <g transform="translate(0,0)"><g class="path" style="transform: matrix(1, 0, 0, 1, 0, 0); transform-origin: -159.505px 2.04526px; animation: 1s linear -0.6s infinite normal forwards running bounce-66494535-2ae0-4e1b-a159-8bdaae995cb4;"><path d="M16.22 6.91L16.22 6.91Q13.15 4.03 10.37 2.54L10.37 2.54L10.37 2.54Q7.58 1.06 3.60 1.06L3.60 1.06L3.60 1.06Q-0.38 1.06-2.74 2.54L-2.74 2.54L-2.74 2.54Q-5.09 4.03-5.09 6.77L-5.09 6.77L-5.09 6.77Q-5.09 9.50-1.97 11.18L-1.97 11.18L-1.97 11.18Q1.15 12.86 5.38 12.86L5.38 12.86L5.38 12.86Q9.60 12.86 12.86 12.10L12.86 12.10L12.86 12.10Q14.78 10.37 16.22 6.91L16.22 6.91zM32.45 16.66L32.45 16.66L32.45 16.66Q34.08 17.18 35.90 17.38L35.90 17.38L35.90 17.38Q37.73 17.57 40.75 17.57L40.75 17.57L40.75 17.57Q43.78 17.57 46.94 15.94L46.94 15.94L46.94 15.94Q50.11 14.30 51.98 12.14L51.98 12.14L51.98 12.14Q53.86 9.98 55.30 7.30L55.30 7.30L55.30 7.30Q57.12 4.13 57.98 0.96L57.98 0.96L60.29 1.73L60.29 1.73Q57.79 9.89 52.37 14.69L52.37 14.69L52.37 14.69Q46.94 19.49 39.74 19.49L39.74 19.49L39.74 19.49Q34.08 19.49 31.92 18.67L31.92 18.67L31.92 18.67Q29.76 17.86 28.80 17.62L28.80 17.62L28.80 17.62Q27.84 17.38 26.26 16.18L26.26 16.18L26.26 16.18Q24.67 14.98 24.38 14.78L24.38 14.78L24.38 14.78Q23.62 14.21 20.45 11.04L20.45 11.04L20.45 11.04Q14.30 14.69 7.20 14.69L7.20 14.69L7.20 14.69Q0.10 14.69-3.65 12.43L-3.65 12.43L-3.65 12.43Q-7.39 10.18-7.39 6.77L-7.39 6.77L-7.39 6.77Q-7.39 3.36-4.66 1.30L-4.66 1.30L-4.66 1.30Q-1.92-0.77 3.55-0.77L3.55-0.77L3.55-0.77Q11.04-0.77 16.99 4.80L16.99 4.80L16.99 4.80Q18.14 1.25 18.91-3.07L18.91-3.07L25.34-40.22L25.34-40.22Q27.65-54.62 35.33-59.62L35.33-59.62L35.33-59.62Q42.05-63.94 50.59-63.94L50.59-63.94L50.59-63.94Q59.14-63.94 64.56-59.04L64.56-59.04L64.56-59.04Q69.98-54.14 69.98-43.58L69.98-43.58L67.68-43.58L67.68-43.58Q67.68-52.13 63.60-56.59L63.60-56.59L63.60-56.59Q59.52-61.06 53.28-61.06L53.28-61.06L53.28-61.06Q41.86-61.06 39.74-46.85L39.74-46.85L39.74-46.85Q39.74-45.31 37.30-31.06L37.30-31.06L37.30-31.06Q34.85-16.80 32.93-7.49L32.93-7.49L32.93-7.49Q30.91 3.74 22.18 9.89L22.18 9.89L22.18 9.89Q27.36 15.07 29.86 15.84L29.86 15.84L29.86 15.84Q30.82 16.13 32.45 16.66" fill="#93dbe9" stroke="none" stroke-width="none" transform="translate(-190.79995727539062,24.270256306041368)" style="fill: rgb(147, 219, 233);"></path></g><g class="path" style="transform: matrix(1, 0, 0, 1, 0, 0); transform-origin: -107.76px 6.03026px; animation: 1s linear -0.54s infinite normal forwards running bounce-66494535-2ae0-4e1b-a159-8bdaae995cb4;"><path d="M79.30 0.86L79.30 0.86Q71.90 0.86 68.06-2.83L68.06-2.83L68.06-2.83Q64.22-6.53 64.22-12.14L64.22-12.14L64.22-12.14Q64.22-17.76 65.23-21.74L65.23-21.74L65.23-21.74Q66.24-25.73 68.54-29.42L68.54-29.42L68.54-29.42Q70.85-33.12 75.50-35.23L75.50-35.23L75.50-35.23Q80.16-37.34 87.12-37.34L87.12-37.34L87.12-37.34Q94.08-37.34 97.97-33.65L97.97-33.65L97.97-33.65Q101.86-29.95 101.86-23.52L101.86-23.52L101.86-23.52Q101.86-12.58 96.05-5.86L96.05-5.86L96.05-5.86Q90.24 0.86 79.30 0.86L79.30 0.86zM75.07-9.02L75.07-9.02L75.07-9.02Q75.07-1.34 79.54-1.34L79.54-1.34L79.54-1.34Q84-1.34 87.50-9.07L87.50-9.07L87.50-9.07Q91.01-16.80 91.01-27.46L91.01-27.46L91.01-27.46Q91.01-35.52 86.64-35.52L86.64-35.52L86.64-35.52Q82.27-35.52 78.67-28.18L78.67-28.18L78.67-28.18Q75.07-20.83 75.07-9.02" fill="#93dbe9" stroke="none" stroke-width="none" transform="translate(-190.79995727539062,24.270256306041368)" style="fill: rgb(104, 156, 197);"></path></g><g class="path" style="transform: matrix(1, 0, 0, 1, 0, 0); transform-origin: -63.505px 6.03026px; animation: 1s linear -0.48s infinite normal forwards running bounce-66494535-2ae0-4e1b-a159-8bdaae995cb4;"><path d="M140.45 0.86L140.45 0.86L140.45 0.86Q132 0.86 131.23-6.53L131.23-6.53L131.23-6.53Q127.01 0.86 120.58 0.86L120.58 0.86L120.58 0.86Q114.14 0.86 110.35-3.02L110.35-3.02L110.35-3.02Q106.56-6.91 106.56-13.92L106.56-13.92L106.56-13.92Q106.56-24.86 111.94-31.10L111.94-31.10L111.94-31.10Q117.31-37.34 125.86-37.34L125.86-37.34L125.86-37.34Q132.86-37.34 135.17-30.72L135.17-30.72L135.17-30.72Q135.65-33.60 136.22-36.48L136.22-36.48L136.22-36.48Q143.33-36.48 146.78-37.06L146.78-37.06L148.03-37.34L141.41-1.06L141.41-1.06Q144.29-1.34 146.21-3.74L146.21-3.74L147.65-2.59L147.65-2.59Q144.77 0.86 140.45 0.86zM117.41-9.02L117.41-9.02Q117.41-4.70 118.51-3.02L118.51-3.02L118.51-3.02Q119.62-1.34 121.92-1.34L121.92-1.34L121.92-1.34Q124.22-1.34 126.62-3.84L126.62-3.84L126.62-3.84Q129.79-7.10 131.71-12.10L131.71-12.10L131.71-12.10Q132-13.34 132.82-18.10L132.82-18.10L132.82-18.10Q133.63-22.85 134.21-25.92L134.21-25.92L134.21-25.92Q133.92-29.57 132.19-32.26L132.19-32.26L132.19-32.26Q130.46-34.94 127.87-34.94L127.87-34.94L127.87-34.94Q123.17-34.94 120.29-26.54L120.29-26.54L120.29-26.54Q117.41-18.14 117.41-9.02L117.41-9.02" fill="#93dbe9" stroke="none" stroke-width="none" transform="translate(-190.79995727539062,24.270256306041368)" style="fill: rgb(94, 111, 163);"></path></g><g class="path" style="transform: matrix(1, 0, 0, 1, 0, 0); transform-origin: -16.03px -6.40474px; animation: 1s linear -0.42s infinite normal forwards running bounce-66494535-2ae0-4e1b-a159-8bdaae995cb4;"><path d="M186.34 0.86L186.34 0.86L186.34 0.86Q177.89 0.86 177.12-6.34L177.12-6.34L177.12-6.34Q172.90 0.86 166.37 0.86L166.37 0.86L166.37 0.86Q159.84 0.86 156.38-2.83L156.38-2.83L156.38-2.83Q152.93-6.53 152.93-12.96L152.93-12.96L152.93-12.96Q152.93-24.29 158.30-30.82L158.30-30.82L158.30-30.82Q163.68-37.34 172.22-37.34L172.22-37.34L172.22-37.34Q177.12-37.34 179.81-34.37L179.81-34.37L179.81-34.37Q180.96-32.83 181.25-32.06L181.25-32.06L186.43-60.29L186.43-60.29Q183.55-60 181.63-57.60L181.63-57.60L180.19-58.75L180.19-58.75Q183.07-62.21 187.44-62.21L187.44-62.21L187.44-62.21Q191.81-62.21 194.21-60L194.21-60L194.21-60Q196.61-57.79 196.61-53.76L196.61-53.76L196.61-53.76Q196.61-52.99 196.42-51.26L196.42-51.26L196.42-51.26Q191.71-24.86 187.30-1.06L187.30-1.06L187.30-1.06Q190.18-1.34 192.10-3.74L192.10-3.74L193.54-2.59L193.54-2.59Q190.66 0.86 186.34 0.86zM163.78-9.02L163.78-9.02Q163.78-4.61 164.69-2.98L164.69-2.98L164.69-2.98Q165.60-1.34 167.57-1.34L167.57-1.34L167.57-1.34Q169.54-1.34 171.36-2.69L171.36-2.69L171.36-2.69Q173.18-4.03 174.43-6.14L174.43-6.14L174.43-6.14Q176.74-9.70 177.70-12.19L177.70-12.19L180.48-27.36L180.48-27.36Q180.29-30.43 178.46-32.98L178.46-32.98L178.46-32.98Q176.64-35.52 172.22-35.52L172.22-35.52L172.22-35.52Q169.15-35.52 166.46-26.50L166.46-26.50L166.46-26.50Q163.78-17.47 163.78-9.02L163.78-9.02" fill="#93dbe9" stroke="none" stroke-width="none" transform="translate(-190.79995727539062,24.270256306041368)" style="fill: rgb(59, 67, 104);"></path></g><g class="path" style="transform: matrix(1, 0, 0, 1, 0, 0); transform-origin: 17.76px 6.03026px; animation: 1s linear -0.36s infinite normal forwards running bounce-66494535-2ae0-4e1b-a159-8bdaae995cb4;"><path d="M216.58-2.59L216.58-2.59Q213.70 0.86 209.38 0.86L209.38 0.86L209.38 0.86Q205.06 0.86 202.61-1.34L202.61-1.34L202.61-1.34Q200.16-3.55 200.16-7.10L200.16-7.10L200.16-7.10Q200.16-8.35 201.70-17.57L201.70-17.57L204.86-34.75L200.83-34.75L201.02-36.48L205.15-36.48L205.15-36.48Q212.26-36.48 215.62-37.06L215.62-37.06L216.96-37.34L210.34-1.06L210.34-1.06Q213.22-1.34 215.14-3.74L215.14-3.74L216.58-2.59" fill="#93dbe9" stroke="none" stroke-width="none" transform="translate(-190.79995727539062,24.270256306041368)" style="fill: rgb(25, 29, 58);"></path></g><g class="path" style="transform: matrix(1, 0, 0, 1, 0, 0); transform-origin: 22.27px -27.2297px; animation: 1s linear -0.3s infinite normal forwards running bounce-66494535-2ae0-4e1b-a159-8bdaae995cb4;"><path d="M208.13-46.56L208.13-46.56L208.13-46.56Q206.11-48.58 206.11-51.46L206.11-51.46L206.11-51.46Q206.11-54.34 208.13-56.40L208.13-56.40L208.13-56.40Q210.14-58.46 213.02-58.46L213.02-58.46L213.02-58.46Q215.90-58.46 217.97-56.40L217.97-56.40L217.97-56.40Q220.03-54.34 220.03-51.46L220.03-51.46L220.03-51.46Q220.03-48.58 217.97-46.56L217.97-46.56L217.97-46.56Q215.90-44.54 213.02-44.54L213.02-44.54L213.02-44.54Q210.14-44.54 208.13-46.56" fill="#93dbe9" stroke="none" stroke-width="none" transform="translate(-190.79995727539062,24.270256306041368)" style="fill: rgb(217, 219, 238);"></path></g><g class="path" style="transform: matrix(1, 0, 0, 1, 0, 0); transform-origin: 53.09px 6.03026px; animation: 1s linear -0.24s infinite normal forwards running bounce-66494535-2ae0-4e1b-a159-8bdaae995cb4;"><path d="M259.20-1.06L259.20-1.06L259.20-1.06Q261.50-1.06 264-3.74L264-3.74L265.44-2.59L265.44-2.59Q264.77-1.25 262.46-0.19L262.46-0.19L262.46-0.19Q260.16 0.86 257.38 0.86L257.38 0.86L257.38 0.86Q248.64 0.86 248.64-7.01L248.64-7.01L248.64-7.01Q248.64-10.37 250.37-19.01L250.37-19.01L250.37-19.01Q252.10-27.65 252.10-30.34L252.10-30.34L252.10-30.34Q252.10-34.46 248.16-34.46L248.16-34.46L248.16-34.46Q244.99-34.46 242.06-30.34L242.06-30.34L242.06-30.34Q239.14-26.21 237.22-19.01L237.22-19.01L233.95-1.06L233.95-1.06Q236.93-1.34 238.85-3.74L238.85-3.74L240.29-2.59L240.29-2.59Q237.41 0.86 233.09 0.86L233.09 0.86L233.09 0.86Q228.77 0.86 226.32-1.34L226.32-1.34L226.32-1.34Q223.87-3.55 223.87-7.10L223.87-7.10L223.87-7.10Q223.87-8.45 225.41-17.66L225.41-17.66L228.58-35.42L228.58-35.42Q225.70-35.14 223.78-32.74L223.78-32.74L222.34-33.89L222.34-33.89Q225.22-37.34 229.58-37.34L229.58-37.34L229.58-37.34Q233.95-37.34 236.35-35.14L236.35-35.14L236.35-35.14Q238.75-32.93 238.75-28.90L238.75-28.90L238.75-28.32L238.75-28.32Q242.69-37.34 251.04-37.34L251.04-37.34L251.04-37.34Q256.70-37.34 259.87-34.13L259.87-34.13L259.87-34.13Q263.04-30.91 263.04-25.25L263.04-25.25L263.04-25.25Q263.04-22.27 261.22-13.78L261.22-13.78L261.22-13.78Q259.39-5.28 259.20-1.06" fill="#93dbe9" stroke="none" stroke-width="none" transform="translate(-190.79995727539062,24.270256306041368)" style="fill: rgb(179, 183, 226);"></path></g><g class="path" style="transform: matrix(1, 0, 0, 1, 0, 0); transform-origin: 98.545px 14.4303px; animation: 1s linear -0.18s infinite normal forwards running bounce-66494535-2ae0-4e1b-a159-8bdaae995cb4;"><path d="M301.54 10.46L301.54 10.46L301.54 10.46Q304.99 10.46 307.49 7.78L307.49 7.78L308.83 8.93L308.83 8.93Q306.53 12.19 301.54 12.19L301.54 12.19L301.54 12.19Q299.42 12.19 297.22 11.71L297.22 11.71L297.22 11.71Q290.69 17.66 280.51 17.66L280.51 17.66L280.51 17.66Q274.46 17.66 271.15 15.60L271.15 15.60L271.15 15.60Q267.84 13.54 267.84 10.22L267.84 10.22L267.84 10.22Q267.84 6.91 269.90 4.94L269.90 4.94L269.90 4.94Q271.97 2.98 277.25 2.98L277.25 2.98L277.25 2.98Q282.53 2.98 291.17 7.30L291.17 7.30L294.14-8.64L294.14-8.64Q289.82-0.67 283.01-0.67L283.01-0.67L283.01-0.67Q269.95-0.67 269.95-13.54L269.95-13.54L269.95-13.54Q269.95-24.29 275.38-30.82L275.38-30.82L275.38-30.82Q280.80-37.34 289.25-37.34L289.25-37.34L289.25-37.34Q294.14-37.34 296.83-34.37L296.83-34.37L296.83-34.37Q297.60-33.50 298.37-31.78L298.37-31.78L299.23-36.48L299.23-36.48Q306.34-36.48 309.60-37.06L309.60-37.06L310.85-37.34L304.51-1.92L304.51-1.92Q303.07 5.57 298.75 10.18L298.75 10.18L298.75 10.18Q300 10.46 301.54 10.46zM280.80-10.56L280.80-10.56Q280.80-6.14 281.66-4.66L281.66-4.66L281.66-4.66Q282.53-3.17 284.93-3.17L284.93-3.17L284.93-3.17Q287.33-3.17 289.82-5.76L289.82-5.76L289.82-5.76Q292.32-8.35 293.42-10.61L293.42-10.61L293.42-10.61Q294.53-12.86 295.30-14.98L295.30-14.98L297.31-26.02L297.31-26.69L297.31-26.69Q297.31-35.52 289.25-35.52L289.25-35.52L289.25-35.52Q286.18-35.52 283.49-27.17L283.49-27.17L283.49-27.17Q280.80-18.82 280.80-10.56L280.80-10.56zM280.13 15.74L280.13 15.74L280.13 15.74Q287.81 15.74 290.50 9.12L290.50 9.12L289.15 8.45L289.15 8.45Q288 7.87 287.76 7.73L287.76 7.73L287.76 7.73Q287.52 7.58 286.46 7.10L286.46 7.10L286.46 7.10Q285.41 6.62 284.93 6.48L284.93 6.48L284.93 6.48Q284.45 6.34 283.44 5.95L283.44 5.95L283.44 5.95Q282.43 5.57 281.76 5.42L281.76 5.42L281.76 5.42Q281.09 5.28 280.22 5.09L280.22 5.09L280.22 5.09Q278.78 4.80 276 4.80L276 4.80L276 4.80Q273.22 4.80 271.54 6.14L271.54 6.14L271.54 6.14Q269.86 7.49 269.86 10.08L269.86 10.08L269.86 10.08Q269.86 12.67 272.64 14.21L272.64 14.21L272.64 14.21Q275.42 15.74 280.13 15.74" fill="#93dbe9" stroke="none" stroke-width="none" transform="translate(-190.79995727539062,24.270256306041368)" style="fill: rgb(147, 219, 233);"></path></g><g class="path" style="transform: matrix(1, 0, 0, 1, 0, 0); transform-origin: 130.94px 18.0803px; animation: 1s linear -0.12s infinite normal forwards running bounce-66494535-2ae0-4e1b-a159-8bdaae995cb4;"><path d="M316.80-1.25L316.80-1.25L316.80-1.25Q314.78-3.26 314.78-6.14L314.78-6.14L314.78-6.14Q314.78-9.02 316.80-11.09L316.80-11.09L316.80-11.09Q318.82-13.15 321.70-13.15L321.70-13.15L321.70-13.15Q324.58-13.15 326.64-11.09L326.64-11.09L326.64-11.09Q328.70-9.02 328.70-6.14L328.70-6.14L328.70-6.14Q328.70-3.26 326.64-1.25L326.64-1.25L326.64-1.25Q324.58 0.77 321.70 0.77L321.70 0.77L321.70 0.77Q318.82 0.77 316.80-1.25" fill="#93dbe9" stroke="none" stroke-width="none" transform="translate(-190.79995727539062,24.270256306041368)" style="fill: rgb(104, 156, 197);"></path></g><g class="path" style="transform: matrix(1, 0, 0, 1, 0, 0); transform-origin: 153.7px 18.0803px; animation: 1s linear -0.06s infinite normal forwards running bounce-66494535-2ae0-4e1b-a159-8bdaae995cb4;"><path d="M339.55-1.25L339.55-1.25L339.55-1.25Q337.54-3.26 337.54-6.14L337.54-6.14L337.54-6.14Q337.54-9.02 339.55-11.09L339.55-11.09L339.55-11.09Q341.57-13.15 344.45-13.15L344.45-13.15L344.45-13.15Q347.33-13.15 349.39-11.09L349.39-11.09L349.39-11.09Q351.46-9.02 351.46-6.14L351.46-6.14L351.46-6.14Q351.46-3.26 349.39-1.25L349.39-1.25L349.39-1.25Q347.33 0.77 344.45 0.77L344.45 0.77L344.45 0.77Q341.57 0.77 339.55-1.25" fill="#93dbe9" stroke="none" stroke-width="none" transform="translate(-190.79995727539062,24.270256306041368)" style="fill: rgb(94, 111, 163);"></path></g><g class="path" style="transform: matrix(1, 0, 0, 1, 0, 0); transform-origin: 176.45px 18.0803px; animation: 1s linear 0s infinite normal forwards running bounce-66494535-2ae0-4e1b-a159-8bdaae995cb4;"><path d="M362.30-1.25L362.30-1.25L362.30-1.25Q360.29-3.26 360.29-6.14L360.29-6.14L360.29-6.14Q360.29-9.02 362.30-11.09L362.30-11.09L362.30-11.09Q364.32-13.15 367.20-13.15L367.20-13.15L367.20-13.15Q370.08-13.15 372.14-11.09L372.14-11.09L372.14-11.09Q374.21-9.02 374.21-6.14L374.21-6.14L374.21-6.14Q374.21-3.26 372.14-1.25L372.14-1.25L372.14-1.25Q370.08 0.77 367.20 0.77L367.20 0.77L367.20 0.77Q364.32 0.77 362.30-1.25" fill="#93dbe9" stroke="none" stroke-width="none" transform="translate(-190.79995727539062,24.270256306041368)" style="fill: rgb(59, 67, 104);"></path></g></g>
</g>
</g>
<style id="bounce-66494535-2ae0-4e1b-a159-8bdaae995cb4" data-anikit="">@keyframes bounce-66494535-2ae0-4e1b-a159-8bdaae995cb4
{
  0% {
    animation-timing-function: cubic-bezier(0.1361,0.2514,0.2175,0.8786);
    transform: translate(0,0px) scaleY(1);
  }
  37% {
    animation-timing-function: cubic-bezier(0.7674,0.1844,0.8382,0.7157);
    transform: translate(0,-39.96px) scaleY(1);
  }
  72% {
    animation-timing-function: cubic-bezier(0.1118,0.2149,0.2172,0.941);
    transform: translate(0,0px) scaleY(1);
  }
  87% {
    animation-timing-function: cubic-bezier(0.7494,0.2259,0.8209,0.6963);
    transform: translate(0,19.900000000000002px) scaleY(0.602);
  }
  100% {
    transform: translate(0,0px) scaleY(1);
  }
}</style></svg>