<?xml version="1.0" encoding="utf-8"?>
<svg xmlns="http://www.w3.org/2000/svg" style="margin: auto; background: white; display: block; shape-rendering: auto;" width="280" height="250" preserveAspectRatio="xMidYMid">
<style type="text/css">
  text {
    text-anchor: middle; font-size: 80px; opacity: 0;
  }
</style>
<g style="transform-origin:140px 125px;transform:scale(1)">
<g transform="translate(140,125)">
  <g transform="translate(0,0)"><g class="path" style="transform: matrix(1, 0, 0, 1, 0, 0); transform-origin: -82.76px 2.1414px; animation: 1s linear -0.5775s infinite normal forwards running bounce-85bdf2b8-ca83-4dd3-adae-e15e9545d622;"><path d="M24.72 15.52L24.72 15.52L24.72 15.52Q33.12 15.52 37.80 12.08L37.80 12.08L37.80 12.08Q42.48 8.64 42.48 2.96L42.48 2.96L42.48 2.96Q42.48-1.12 40.44-4.24L40.44-4.24L40.44-4.24Q38.40-7.36 35.36-9.40L35.36-9.40L35.36-9.40Q32.32-11.44 29.16-13.44L29.16-13.44L29.16-13.44Q26-15.44 23.28-18.48L23.28-18.48L23.28-18.48Q20.56-21.52 19.68-25.36L19.68-25.36L19.68-25.36Q12.40-27.52 10.08-34.40L10.08-34.40L10.08-34.40Q9.20-37.04 9.20-39.92L9.20-39.92L9.20-39.92Q9.20-42.80 10.08-45.92L10.08-45.92L10.08-45.92Q11.92-52.08 16.08-55.20L16.08-55.20L16.96-53.92L16.96-53.92Q13.20-51.20 11.52-45.44L11.52-45.44L11.52-45.44Q10.72-42.56 10.72-39.92L10.72-39.92L10.72-39.92Q10.72-37.28 11.52-34.88L11.52-34.88L11.52-34.88Q13.44-29.04 19.44-27.04L19.44-27.04L19.44-27.04Q19.28-27.92 19.28-29.76L19.28-29.76L19.28-29.76Q19.28-40.24 26.88-46.72L26.88-46.72L26.88-46.72Q34.48-53.20 45.44-53.20L45.44-53.20L45.44-53.20Q52.64-53.20 56.96-49.28L56.96-49.28L56.96-49.28Q60.64-45.84 60.64-40.84L60.64-40.84L60.64-40.84Q60.64-35.84 57.28-32.20L57.28-32.20L57.28-32.20Q53.92-28.56 48.24-28.56L48.24-28.56L48.24-28.56Q45.12-28.56 43.12-29.76L43.12-29.76L43.12-29.76Q39.04-26.64 33.44-25.28L33.44-25.28L33.44-25.28Q35.04-23.76 40.92-19.68L40.92-19.68L40.92-19.68Q46.80-15.60 49.72-11.88L49.72-11.88L49.72-11.88Q52.64-8.16 52.64-3.20L52.64-3.20L52.64-3.20Q52.64 5.92 45.56 11.60L45.56 11.60L45.56 11.60Q38.48 17.28 27.64 17.28L27.64 17.28L27.64 17.28Q16.80 17.28 11.28 12.48L11.28 12.48L11.28 12.48Q6.48 8.40 6.48 2.52L6.48 2.52L6.48 2.52Q6.48-3.36 10.28-7.56L10.28-7.56L10.28-7.56Q14.08-11.76 19.76-11.76L19.76-11.76L19.76-11.76Q25.44-11.76 28.16-9.24L28.16-9.24L28.16-9.24Q30.88-6.72 30.88-3.12L30.88-3.12L30.88-3.12Q30.88 0.48 28.68 3.28L28.68 3.28L28.68 3.28Q26.48 6.08 22.96 6.08L22.96 6.08L22.96 6.08Q19.44 6.08 17.36 3.84L17.36 3.84L17.36 3.84Q15.44 1.92 15.20-0.96L15.20-0.96L15.20-0.96Q15.12-1.76 15.20-1.92L15.20-1.92L16.72-1.84L16.72-1.84Q16.64 0.96 18.48 2.80L18.48 2.80L18.48 2.80Q20 4.48 22.92 4.48L22.92 4.48L22.92 4.48Q25.84 4.48 27.60 2.20L27.60 2.20L27.60 2.20Q29.36-0.08 29.36-3.08L29.36-3.08L29.36-3.08Q29.36-6.08 27.28-7.92L27.28-7.92L27.28-7.92Q24.96-10.24 19.84-10.24L19.84-10.24L19.84-10.24Q14.72-10.24 11.36-6.52L11.36-6.52L11.36-6.52Q8-2.80 8 2.44L8 2.44L8 2.44Q8 7.68 12.32 11.36L12.32 11.36L12.32 11.36Q14.88 13.60 17.56 14.56L17.56 14.56L17.56 14.56Q20.24 15.52 24.72 15.52zM38.32-39.52L38.32-39.52L38.32-39.52Q38.32-43.04 40.12-45.36L40.12-45.36L40.12-45.36Q41.92-47.68 45.04-47.68L45.04-47.68L45.04-47.68Q50.40-47.68 50.40-41.80L50.40-41.80L50.40-41.80Q50.40-35.92 44.56-30.72L44.56-30.72L44.56-30.72Q46.32-29.92 48.24-29.92L48.24-29.92L48.24-29.92Q53.20-29.92 56.16-33.16L56.16-33.16L56.16-33.16Q59.12-36.40 59.12-40.76L59.12-40.76L59.12-40.76Q59.12-45.12 55.92-48.16L55.92-48.16L55.92-48.16Q52-51.68 45.60-51.68L45.60-51.68L45.60-51.68Q39.20-51.68 34.72-48.56L34.72-48.56L34.72-48.56Q27.76-43.60 27.76-35.76L27.76-35.76L27.76-35.76Q27.76-29.28 32.08-26.32L32.08-26.32L32.08-26.32Q37.44-27.52 42-30.64L42-30.64L42-30.64Q38.32-33.92 38.32-39.52zM44.96-46.24L44.96-46.24L44.96-46.24Q42.56-46.24 41.24-44.40L41.24-44.40L41.24-44.40Q39.92-42.56 39.92-39.52L39.92-39.52L39.92-39.52Q39.92-34.32 43.20-31.60L43.20-31.60L43.20-31.60Q45.60-33.28 47.20-36.16L47.20-36.16L47.20-36.16Q48.80-39.04 48.80-41.84L48.80-41.84L48.80-41.84Q48.80-46.24 44.96-46.24" fill="#93dbe9" stroke="none" stroke-width="none" transform="translate(-116.32000732421875,21.101399536132813)" style="fill: rgb(147, 219, 233);"></path></g><g class="path" style="transform: matrix(1, 0, 0, 1, 0, 0); transform-origin: -41.04px 5.9014px; animation: 1s linear -0.495s infinite normal forwards running bounce-85bdf2b8-ca83-4dd3-adae-e15e9545d622;"><path d="M78.80-31.12L78.80-31.12L78.80-31.12Q88.96-31.12 88.96-23.04L88.96-23.04L88.96-23.04Q88.96-18 84.20-15.40L84.20-15.40L84.20-15.40Q79.44-12.80 70.64-12.72L70.64-12.72L70.64-12.72Q70.48-9.84 70.48-8.16L70.48-8.16L70.48-8.16Q70.48-4.56 72.12-2.84L72.12-2.84L72.12-2.84Q73.76-1.12 76.24-1.12L76.24-1.12L76.24-1.12Q78.72-1.12 80.76-2.08L80.76-2.08L80.76-2.08Q82.80-3.04 84-4.36L84-4.36L84-4.36Q85.20-5.68 86.08-7.12L86.08-7.12L86.08-7.12Q87.68-9.76 87.68-10.48L87.68-10.48L89.12-9.84L89.12-9.84Q88.88-8.56 87.68-6.44L87.68-6.44L87.68-6.44Q86.48-4.32 85.04-2.96L85.04-2.96L85.04-2.96Q83.60-1.60 80.80-0.44L80.80-0.44L80.80-0.44Q78 0.72 74.56 0.72L74.56 0.72L74.56 0.72Q68.08 0.72 64.76-2.36L64.76-2.36L64.76-2.36Q61.44-5.44 61.44-10.80L61.44-10.80L61.44-10.80Q61.44-20.32 66.16-25.72L66.16-25.72L66.16-25.72Q70.88-31.12 78.80-31.12zM86.96-23.04L86.96-23.04Q86.96-25.68 85.40-27.40L85.40-27.40L85.40-27.40Q83.84-29.12 80.76-29.12L80.76-29.12L80.76-29.12Q77.68-29.12 74.76-25.44L74.76-25.44L74.76-25.44Q71.84-21.76 70.88-14.56L70.88-14.56L70.88-14.56Q86.96-14.64 86.96-23.04L86.96-23.04" fill="#93dbe9" stroke="none" stroke-width="none" transform="translate(-116.32000732421875,21.101399536132813)" style="fill: rgb(104, 156, 197);"></path></g><g class="path" style="transform: matrix(1, 0, 0, 1, 0, 0); transform-origin: -8.00001px 5.5414px; animation: 1s linear -0.4125s infinite normal forwards running bounce-85bdf2b8-ca83-4dd3-adae-e15e9545d622;"><path d="M94.96-27.28L93.76-28.24L93.76-28.24Q96.16-31.12 99.80-31.12L99.80-31.12L99.80-31.12Q103.44-31.12 105.44-29.28L105.44-29.28L105.44-29.28Q107.44-27.44 107.44-24.08L107.44-24.08L107.44-23.60L107.44-23.60Q111.04-31.12 116.80-31.12L116.80-31.12L116.80-31.12Q122.96-31.12 122.96-24.72L122.96-24.72L122.96-24.72Q122.96-22.08 121.20-19.12L121.20-19.12L121.20-19.12Q119.44-16.16 117.68-13.48L117.68-13.48L117.68-13.48Q115.92-10.80 115.92-8.72L115.92-8.72L114-8.72L114-8.72Q114-11.68 117.44-16.72L117.44-16.72L117.44-16.72Q120.88-21.76 120.88-24.52L120.88-24.52L120.88-24.52Q120.88-27.28 119.80-28.28L119.80-28.28L119.80-28.28Q118.72-29.28 116.60-29.28L116.60-29.28L116.60-29.28Q114.48-29.28 112.44-27.44L112.44-27.44L112.44-27.44Q110.40-25.60 109.04-22.80L109.04-22.80L109.04-22.80Q106.88-18.64 106.16-16L106.16-16L106.16-15.92L103.28 0L93.68 0L98.96-29.52L98.96-29.52Q96.56-29.28 94.96-27.28L94.96-27.28" fill="#93dbe9" stroke="none" stroke-width="none" transform="translate(-116.32000732421875,21.101399536132813)" style="fill: rgb(94, 111, 163);"></path></g><g class="path" style="transform: matrix(1, 0, 0, 1, 0, 0); transform-origin: 23.88px 5.9014px; animation: 1s linear -0.33s infinite normal forwards running bounce-85bdf2b8-ca83-4dd3-adae-e15e9545d622;"><path d="M145.60-21.20L145.60-21.20L145.60-21.20Q143.92-22.88 143.92-25.28L143.92-25.28L143.92-25.28Q143.92-27.68 145.60-29.40L145.60-29.40L145.60-29.40Q147.28-31.12 149.40-31.12L149.40-31.12L149.40-31.12Q151.52-31.12 153-30.04L153-30.04L153-30.04Q154.48-28.96 155.12-27.28L155.12-27.28L155.12-27.28Q155.20-27.20 155.20-27.12L155.20-27.12L155.20-27.04L155.20-27.04Q156.16-24.96 156.16-21L156.16-21L156.16-21Q156.16-17.04 155.24-13.76L155.24-13.76L155.24-13.76Q154.32-10.48 152.44-7.08L152.44-7.08L152.44-7.08Q150.56-3.68 146.96-1.48L146.96-1.48L146.96-1.48Q143.36 0.72 138.48 0.72L138.48 0.72L138.48 0.72Q133.60 0.72 130.36-2.48L130.36-2.48L130.36-2.48Q127.12-5.68 127.12-9.84L127.12-9.84L127.12-9.84Q127.12-14 128.60-20.12L128.60-20.12L128.60-20.12Q130.08-26.24 130.24-29.52L130.24-29.52L130.24-29.52Q128.96-29.44 127.76-28.60L127.76-28.60L127.76-28.60Q126.56-27.76 126-26.96L126-26.96L125.44-26.16L124.24-27.12L124.24-27.12Q124.48-27.60 124.96-28.24L124.96-28.24L124.96-28.24Q125.44-28.88 127.40-30L127.40-30L127.40-30Q129.36-31.12 132.32-31.12L132.32-31.12L132.32-31.12Q135.28-31.12 137.08-29.20L137.08-29.20L137.08-29.20Q138.88-27.28 138.88-24.32L138.88-24.32L138.88-24.32Q138.88-21.36 137.28-15.16L137.28-15.16L137.28-15.16Q135.68-8.96 135.68-6.44L135.68-6.44L135.68-6.44Q135.68-3.92 136.84-2.48L136.84-2.48L136.84-2.48Q138-1.04 140.16-1.04L140.16-1.04L140.16-1.04Q145.52-1.04 149.92-6.88L149.92-6.88L149.92-6.88Q154.32-12.72 154.32-19.92L154.32-19.92L154.32-19.92Q154.32-20.48 154.16-21.60L154.16-21.60L154.16-21.60Q152.48-19.52 149.88-19.52L149.88-19.52L149.88-19.52Q147.28-19.52 145.60-21.20" fill="#93dbe9" stroke="none" stroke-width="none" transform="translate(-116.32000732421875,21.101399536132813)" style="fill: rgb(59, 67, 104);"></path></g><g class="path" style="transform: matrix(1, 0, 0, 1, 0, 0); transform-origin: 51.72px 5.9014px; animation: 1s linear -0.2475s infinite normal forwards running bounce-85bdf2b8-ca83-4dd3-adae-e15e9545d622;"><path d="M174.72-2.16L174.72-2.16Q172.32 0.72 168.72 0.72L168.72 0.72L168.72 0.72Q165.12 0.72 163.08-1.12L163.08-1.12L163.08-1.12Q161.04-2.96 161.04-5.92L161.04-5.92L161.04-5.92Q161.04-6.96 162.32-14.64L162.32-14.64L164.96-28.96L161.60-28.96L161.76-30.40L165.20-30.40L165.20-30.40Q171.12-30.40 173.92-30.88L173.92-30.88L175.04-31.12L169.52-0.88L169.52-0.88Q171.92-1.12 173.52-3.12L173.52-3.12L174.72-2.16" fill="#93dbe9" stroke="none" stroke-width="none" transform="translate(-116.32000732421875,21.101399536132813)" style="fill: rgb(25, 29, 58);"></path></g><g class="path" style="transform: matrix(1, 0, 0, 1, 0, 0); transform-origin: 55.48px -21.8186px; animation: 1s linear -0.165s infinite normal forwards running bounce-85bdf2b8-ca83-4dd3-adae-e15e9545d622;"><path d="M167.68-38.80L167.68-38.80L167.68-38.80Q166-40.48 166-42.88L166-42.88L166-42.88Q166-45.28 167.68-47L167.68-47L167.68-47Q169.36-48.72 171.76-48.72L171.76-48.72L171.76-48.72Q174.16-48.72 175.88-47L175.88-47L175.88-47Q177.60-45.28 177.60-42.88L177.60-42.88L177.60-42.88Q177.60-40.48 175.88-38.80L175.88-38.80L175.88-38.80Q174.16-37.12 171.76-37.12L171.76-37.12L171.76-37.12Q169.36-37.12 167.68-38.80" fill="#93dbe9" stroke="none" stroke-width="none" transform="translate(-116.32000732421875,21.101399536132813)" style="fill: rgb(217, 219, 238);"></path></g><g class="path" style="transform: matrix(1, 0, 0, 1, 0, 0); transform-origin: 75.36px -2.0186px; animation: 1s linear -0.0825s infinite normal forwards running bounce-85bdf2b8-ca83-4dd3-adae-e15e9545d622;"><path d="M198.08-51.84L198.08-51.84L198.08-51.84Q200.96-51.84 202.84-49.68L202.84-49.68L202.84-49.68Q204.72-47.52 204.72-43.20L204.72-43.20L204.72-43.20Q204.72-38.88 201.28-30.40L201.28-30.40L204.32-30.40L204.16-28.96L200.64-28.96L200.64-28.96Q197.92-22.16 197.92-18.64L197.92-18.64L196.48-18.64L196.48-18.64Q196.48-22.80 199.12-28.96L199.12-28.96L194.48-28.96L194.48-28.96Q192.08-16.40 188.32 5.60L188.32 5.60L178.64 5.60L184.80-28.96L179.92-28.96L180.08-30.40L185.04-30.40L186.32-37.28L186.32-37.28Q187.60-45.20 190.28-48.52L190.28-48.52L190.28-48.52Q192.96-51.84 198.08-51.84zM203.20-43.36L203.20-43.36L203.20-43.36Q203.20-46.24 201.88-48.32L201.88-48.32L201.88-48.32Q200.56-50.40 198.64-50.40L198.64-50.40L198.64-50.40Q197.84-47.28 194.72-30.40L194.72-30.40L199.68-30.40L199.68-30.40Q203.20-38.40 203.20-43.36" fill="#93dbe9" stroke="none" stroke-width="none" transform="translate(-116.32000732421875,21.101399536132813)" style="fill: rgb(179, 183, 226);"></path></g><g class="path" style="transform: matrix(1, 0, 0, 1, 0, 0); transform-origin: 104.88px 12.9014px; animation: 1s linear 0s infinite normal forwards running bounce-85bdf2b8-ca83-4dd3-adae-e15e9545d622;"><path d="M208.56-29.52L208.56-29.52L208.56-29.52Q206.64-29.52 204.56-27.28L204.56-27.28L203.36-28.24L203.36-28.24Q203.92-29.36 205.84-30.24L205.84-30.24L205.84-30.24Q207.76-31.12 210.08-31.12L210.08-31.12L210.08-31.12Q217.36-31.12 217.36-24.56L217.36-24.56L217.36-24.56Q217.36-21.76 215.84-15.40L215.84-15.40L215.84-15.40Q214.32-9.04 214.32-6.80L214.32-6.80L214.32-6.80Q214.32-2.96 217.52-2.96L217.52-2.96L217.52-2.96Q220.16-2.96 222.68-6.56L222.68-6.56L222.68-6.56Q225.20-10.16 226.80-16.24L226.80-16.24L229.44-30.40L229.44-30.40Q235.36-30.40 238.08-30.88L238.08-30.88L239.12-31.12L234.08-2.80L234.08-2.80Q232.64 5.44 227.40 10.08L227.40 10.08L227.40 10.08Q222.16 14.72 213.84 14.72L213.84 14.72L213.84 14.72Q208.80 14.72 206.04 13L206.04 13L206.04 13Q203.28 11.28 203.28 8.52L203.28 8.52L203.28 8.52Q203.28 5.76 204.96 4.12L204.96 4.12L204.96 4.12Q206.64 2.48 209.72 2.48L209.72 2.48L209.72 2.48Q212.80 2.48 215.44 3.48L215.44 3.48L215.44 3.48Q218.08 4.48 219.28 4.64L219.28 4.64L219.12 6.08L219.12 6.08Q217.76 5.92 215.20 4.96L215.20 4.96L215.20 4.96Q212.64 4 210.12 4L210.12 4L210.12 4Q207.60 4 206.28 5.12L206.28 5.12L206.28 5.12Q204.96 6.24 204.96 8.36L204.96 8.36L204.96 8.36Q204.96 10.48 207.28 11.80L207.28 11.80L207.28 11.80Q209.60 13.12 213.04 13.12L213.04 13.12L213.04 13.12Q221.36 13.12 223.28 3.12L223.28 3.12L225.28-7.92L225.28-7.92Q221.92-0.56 215.12-0.56L215.12-0.56L215.12-0.56Q210.48-0.56 207.96-3.20L207.96-3.20L207.96-3.20Q205.44-5.84 205.44-10.64L205.44-10.64L205.44-10.64Q205.44-13.12 206.92-19.56L206.92-19.56L206.92-19.56Q208.40-26 208.56-29.52" fill="#93dbe9" stroke="none" stroke-width="none" transform="translate(-116.32000732421875,21.101399536132813)" style="fill: rgb(147, 219, 233);"></path></g></g>
</g>
</g>
<style id="bounce-85bdf2b8-ca83-4dd3-adae-e15e9545d622" data-anikit="">@keyframes bounce-85bdf2b8-ca83-4dd3-adae-e15e9545d622
{
  0% {
    animation-timing-function: cubic-bezier(0.1361,0.2514,0.2175,0.8786);
    transform: translate(0,0px) scaleY(1);
  }
  37% {
    animation-timing-function: cubic-bezier(0.7674,0.1844,0.8382,0.7157);
    transform: translate(0,-39.96px) scaleY(1);
  }
  72% {
    animation-timing-function: cubic-bezier(0.1118,0.2149,0.2172,0.941);
    transform: translate(0,0px) scaleY(1);
  }
  87% {
    animation-timing-function: cubic-bezier(0.7494,0.2259,0.8209,0.6963);
    transform: translate(0,19.900000000000002px) scaleY(0.602);
  }
  100% {
    transform: translate(0,0px) scaleY(1);
  }
}</style></svg>